<?xml version="1.0" encoding="utf-8"?>
<!-- Generator: Adobe Illustrator 27.5.0, SVG Export Plug-In . SVG Version: 6.00 Build 0)  -->
<svg version="1.1" xmlns="http://www.w3.org/2000/svg" xmlns:xlink="http://www.w3.org/1999/xlink" x="0px" y="0px"
	 viewBox="0 0 500 500" style="enable-background:new 0 0 500 500;" xml:space="preserve">
<g id="BACKGROUND">
	<rect style="fill:#FFFFFF;" width="500" height="500"/>
</g>
<g id="OBJECTS">
	<path style="fill:#B9EFEF;" d="M461.1,276.48c0,59.19-24.26,112.71-63.38,151.17H100.57c-39.12-38.46-63.38-91.98-63.38-151.17
		c0-117.06,94.89-211.95,211.95-211.95S461.1,159.42,461.1,276.48z"/>
	<g>
		<g>
			<path style="fill:#FCBC70;" d="M349.628,182.409c-0.108-0.455-0.217-0.9-0.325-1.355c-0.835,0.184-1.702,0.206-2.558,0.217
				c-1.713,0.033-3.436,0.054-5.095-0.358c-3.859-0.976-6.699-4.184-9.04-7.404c-7.393-10.2-12.184-22.016-16.704-33.788l0,0
				c-1.172-2.113,0.694-1.659,2.005-2.97c1.843-1.821,3.555-3.978,6.016-4.802c2.135-0.737,4.542-0.336,6.688-1.073
				c2.125-0.726,3.718-2.493,5.03-4.314c0.78-1.073,1.529-2.222,2.656-2.894c2.374-1.409,5.561-0.119,7.349,1.984
				c1.799,2.092,2.645,4.802,3.87,7.284c2.016,4.097,5.16,7.631,8.997,10.114c0.661-2.656,0.672-5.496,1.843-7.967
				c1.16-2.482,4.13-4.466,6.602-3.295c2.06,0.986,2.71,3.61,2.753,5.897c0.043,2.049-0.217,4.108-0.759,6.081
				c-0.173,0.661-0.39,1.333-0.293,2.005c0.087,0.607,0.401,1.138,0.715,1.659c0.639,1.041,1.279,2.092,1.908,3.133
				c2.19,3.588,4.368,7.165,6.558,10.753c-5.875,6.341-11.74,12.672-17.615,19.002l0.228,0.206c1.182,1.919,2.244,3.881,3.176,5.897
				c-2.266,4.303-4.52,8.596-6.786,12.91c-0.661,1.257-1.322,2.515-2.157,3.664C352.999,196.144,351.319,189.271,349.628,182.409z"
				/>
			<path style="fill:#FF9F48;" d="M361.895,156.105c-0.303,3.117-0.764,6.231-1.456,9.286c-0.557,2.459-1.299,4.905-2.49,7.138
				c-1.164,2.184-2.775,4.134-4.921,5.409c-2.417,1.436-5.254,1.956-8.031,2.076c-1.448,0.062-2.975,0.11-4.401-0.178
				c-1.396-0.282-2.556-1.023-3.576-1.996c-1.993-1.902-3.659-4.226-5.199-6.499c-3.072-4.538-5.541-9.449-7.804-14.43
				c-2.6-5.723-4.942-11.561-7.647-17.237c-0.301-0.631-1.24-0.089-0.942,0.537c5.017,10.523,8.786,21.742,15.325,31.478
				c1.566,2.332,3.264,4.691,5.258,6.68c0.975,0.973,2.09,1.814,3.402,2.27c1.376,0.478,2.886,0.492,4.327,0.487
				c2.865-0.011,5.775-0.368,8.418-1.526c2.394-1.049,4.349-2.817,5.8-4.975c1.628-2.422,2.617-5.242,3.316-8.057
				c0.852-3.429,1.363-6.955,1.705-10.469C363.046,155.406,361.962,155.415,361.895,156.105z"/>
		</g>
		<g>
			<path style="fill:#38364C;" d="M425.54,427.652h-78.199c-2.19-19.468-3.447-42.406-3.761-64.606
				c-0.195-13.658-0.043-27.046,0.477-39.175c0.444,0.108,0.9,0.152,1.355,0.184c20.834,1.821,41.853,1.529,62.622-0.91
				c2.688,4.412,5.518,8.737,8.477,12.975c0.542,0.759,1.138,1.572,2.027,1.854c1.073,0.347,2.222-0.173,3.23-0.683
				c0.889-0.455,1.778-0.911,2.667-1.377C424.814,363.458,425.171,400.238,425.54,427.652z"/>
			<path style="fill:#222233;" d="M376.316,427.652h-17.897v-2.602c0,0,0-0.043,0.011-0.13c0-0.011,0-0.011,0-0.022
				c0-0.033,0.011-0.065,0.011-0.108c0-0.022,0.011-0.054,0.011-0.076c0-0.054,0.011-0.119,0.022-0.195c0-0.043,0-0.098,0.011-0.173
				v-0.011c0-0.022,0.011-0.033,0.011-0.054c0-0.054,0.011-0.108,0.011-0.163c0,0,0,0,0-0.011c0-0.022,0-0.033,0.011-0.054
				c0.011-0.108,0.022-0.238,0.033-0.39c0-0.022,0-0.043,0.011-0.065c0.022-0.271,0.054-0.596,0.087-0.954
				c0.217-2.363,0.607-6.482,1.16-12.347c0.401-4.163,0.791-8.347,0.455-12.52c-0.369-4.629-1.626-9.182-1.539-13.821
				c0.065-3.675,0.965-7.284,1.973-10.818c0.748-2.634,1.528-5.582,0.206-7.967c-0.379-0.683-0.91-1.268-1.246-1.973
				c-1.214-2.602,0.629-5.539,2.385-7.816c0.509-0.661,1.095-1.366,1.919-1.518c1.29-0.228,2.341,1.008,2.97,2.168
				c1.745,3.187,2.634,6.764,3.339,10.331c1.377,6.948,2.114,14.005,2.851,21.051C374.191,397.582,375.264,417.451,376.316,427.652z
				"/>
		</g>
		<g>
			<path style="fill:#4955C1;" d="M320.902,377.441h-0.011c-0.314-0.163-0.607-0.369-0.802-0.661c-0.39-0.585-0.26-1.355-0.13-2.049
				c3.349-16.845,6.32-33.766,8.921-50.742c1.257-8.206,2.428-16.433,2.808-24.726c0.401-8.542-0.054-17.095,0.184-25.636
				c0.759-26.471,8.173-52.671,6.233-79.066c1.962-0.499,3.924-0.976,5.886-1.463c2.07,4.098,1.138,9.517,0.141,14.222
				c-6.883,32.368-8.683,65.798-5.322,98.719c0.52,5.073,1.16,10.157,2.678,15.024c0.249,0.791,0.542,1.615,1.171,2.157
				c0.401,0.347,0.878,0.542,1.398,0.65c-0.52,12.13-0.672,25.517-0.477,39.176l-0.661,0.011
				c-1.409,5.951-3.512,11.729-6.266,17.181c-0.423,0.824-0.932,1.713-1.81,1.984c-0.618,0.184-1.257,0.022-1.875-0.184
				c-0.119-0.054-0.239-0.098-0.358-0.141c-3.697-1.398-7.404-2.808-11.111-4.206C321.303,377.615,321.097,377.528,320.902,377.441z
				"/>
			<path style="fill:#4955C1;" d="M408.033,323.144c-17.138-28.054-28.834-59.435-34.167-91.89
				c-2.482-15.165-3.783-31.078-10.233-44.834c-0.932-2.016-1.994-3.978-3.176-5.897l-0.228-0.206
				c5.875-6.331,11.74-12.661,17.615-19.002c1.908-2.059,3.805-4.108,5.713-6.168c0.249-0.271,0.531-0.564,0.9-0.585
				c0.271-0.022,0.52,0.108,0.748,0.249c1.973,1.29,2.385,3.935,3.122,6.168c0.748,2.233,2.764,4.639,5.008,3.924
				c1.431-0.455,2.331-2.07,3.805-2.352c1.507-0.282,2.829,0.911,4.13,1.723c3.035,1.897,7.187,1.789,10.125-0.238
				c1.507-1.051,2.818-2.602,4.639-2.851c2.667-0.369,4.9,2.222,7.577,2.45c-1.637-2.005-2.84-4.358-3.501-6.862
				c-0.585-2.211-0.748-4.52-1.366-6.721c-2.645-9.496-12.802-15.068-16.715-24.119c1.073-0.856,2.157-1.724,3.23-2.58
				c4.726-3.772,9.452-7.545,14.179-11.306c0.694-0.553,1.377-1.106,2.07-1.659c0.347-0.282,0.748-0.575,1.203-0.553
				c0.509,0.022,0.91,0.444,1.236,0.846c2.504,3.068,4.336,6.623,6.233,10.103c4.64,8.531,9.81,16.78,15.469,24.672
				c7.642,10.667,16.531,21.626,17.485,34.677l-0.076,0.011c0.206,3.642-1.03,7.382-3.436,10.135
				c-3.436,3.924-8.845,5.734-12.087,9.821c-1.767,2.222-2.797,5.03-4.856,6.992c-1.366,1.312-3.144,2.179-4.325,3.664
				c-2.45,3.1-1.724,8.065-4.596,10.786c-1.463,1.398-3.772,2.081-4.455,3.989c-0.347,0.965-0.173,2.027,0,3.035
				c5.171,28.986,15.339,57.072,29.907,82.654c0.748,1.322,1.507,2.992,0.672,4.26c-0.325,0.477-0.824,0.791-1.323,1.095
				c-11.122,6.883-22.504,13.344-34.124,19.338c-0.889,0.466-1.778,0.921-2.667,1.377c-1.008,0.51-2.157,1.03-3.23,0.683
				c-0.889-0.282-1.485-1.095-2.027-1.854C413.551,331.881,410.722,327.556,408.033,323.144z"/>
			<path style="fill:#FFC23B;" d="M343.991,193.098c-0.369-0.737-0.835-1.42-1.409-2.06c-0.596-0.65-1.344-1.377-1.182-2.244
				c0.119-0.618,0.672-1.041,1.182-1.398c2.352-1.669,4.704-3.317,7.046-4.986c1.691,6.862,3.371,13.734,5.062,20.585
				c0.835-1.149,1.496-2.406,2.157-3.664c2.266-4.314,4.52-8.607,6.786-12.91c6.45,13.756,7.751,29.669,10.233,44.834
				c5.333,32.455,17.03,63.836,34.167,91.89c-20.769,2.439-41.788,2.732-62.622,0.911c-0.455-0.033-0.91-0.076-1.355-0.184
				c-0.52-0.108-0.997-0.303-1.398-0.65c-0.629-0.542-0.921-1.366-1.171-2.157c-1.518-4.867-2.157-9.951-2.678-15.024
				c-3.36-32.921-1.561-66.351,5.322-98.719C345.129,202.615,346.062,197.195,343.991,193.098z"/>
			<path style="fill:#3444A5;" d="M436.529,206.436c-2.754-2.305-5.62-4.47-8.591-6.487c-0.313-0.212-0.689,0.025-0.796,0.333
				c-1.394,4.021,1.106,7.954,0.893,11.984c-4.322-3.442-7.068-8.42-9.35-13.366c-2.894-6.272-5.57-12.65-8.34-18.977
				c-0.791-1.807-1.583-3.614-2.374-5.422c-0.493-1.126-1.077-3.595-2.756-3.239c-0.248,0.053-0.384,0.294-0.402,0.526
				c-1.05,14.161,3.154,28.603,11.679,39.964c2.555,3.406,5.415,6.604,7.455,10.366c0.333,0.615,1.274,0.076,0.942-0.537
				c-1.752-3.232-4.108-6.061-6.363-8.945c-2.216-2.836-4.218-5.813-5.91-8.993c-3.296-6.195-5.473-12.998-6.387-19.956
				c-0.487-3.706-0.597-7.453-0.367-11.183c0.393,0.454,0.738,1.554,0.843,1.793l1.079,2.464c0.683,1.561,1.367,3.122,2.05,4.682
				c1.403,3.204,2.806,6.407,4.209,9.611c2.379,5.434,4.544,11.116,7.878,16.058c1.723,2.554,3.776,4.845,6.276,6.66
				c0.27,0.196,0.743-0.007,0.796-0.333c0.349-2.157-0.111-4.265-0.582-6.366c-0.426-1.902-0.848-3.854-0.427-5.767
				c2.679,1.845,5.279,3.801,7.774,5.889C436.288,207.641,437.064,206.883,436.529,206.436z"/>
			<path style="fill:#3444A5;" d="M392.081,167.416c-0.19-0.671-1.238-0.392-1.047,0.281c0.698,2.462-1.026,4.781-2.344,6.698
				c-1.48,2.154-2.999,4.282-4.555,6.383c-2.984,4.026-6.118,7.939-9.37,11.752c-3.132-4.294-6.944-8.032-11.316-11.061
				c-0.574-0.397-1.112,0.544-0.542,0.939c4.411,3.056,8.27,6.879,11.364,11.265c0.184,0.261,0.604,0.406,0.852,0.118
				c2.766-3.224,5.441-6.526,8.02-9.902c2.598-3.401,5.233-6.853,7.511-10.481C391.773,171.62,392.684,169.545,392.081,167.416z"/>
			<path style="fill:#3444A5;" d="M424.316,163.937c-1.794-2.858-3.181-5.948-4.085-9.201c-0.832-2.995-1.432-5.955-2.959-8.699
				c-2.568-4.615-6.485-8.258-9.677-12.416c-1.804-2.351-3.361-4.914-4.186-7.778c6.422-5.06,12.844-10.12,19.266-15.18
				c0.548-0.432-0.219-1.199-0.761-0.772c-6.502,5.123-13.005,10.247-19.507,15.37c-0.239,0.188-0.22,0.437-0.087,0.626
				c0.001,0.045-0.004,0.087,0.01,0.136c1.463,5.201,5.148,9.261,8.591,13.262c1.728,2.008,3.439,4.046,4.832,6.306
				c0.706,1.145,1.334,2.346,1.811,3.605c0.611,1.614,0.966,3.305,1.393,4.973c0.934,3.643,2.416,7.118,4.416,10.305
				C423.744,165.064,424.687,164.529,424.316,163.937z"/>
			<path style="fill:#3444A5;" d="M414.544,333.897c-5.627-9.3-10.859-18.841-15.596-28.625
				c-4.753-9.817-9.009-19.876-12.656-30.156c-3.609-10.171-6.624-20.557-8.929-31.102c-1.147-5.249-2.109-10.534-2.904-15.847
				c-0.759-5.071-1.408-10.158-2.224-15.221c-1.588-9.847-3.84-19.804-8.837-28.542c-0.631-1.104-1.307-2.182-2.019-3.235
				c-0.389-0.576-1.333-0.041-0.942,0.537c5.72,8.456,8.441,18.392,10.212,28.336c1.831,10.28,2.875,20.672,4.961,30.911
				c2.155,10.576,5.03,21.001,8.512,31.216c3.489,10.235,7.584,20.263,12.175,30.052c4.596,9.802,9.693,19.367,15.198,28.689
				c0.696,1.179,1.399,2.353,2.108,3.524C413.964,335.031,414.906,334.494,414.544,333.897z"/>
			<path style="fill:#3444A5;" d="M427.767,260.75c-3.466,4.044-7.078,7.962-10.836,11.737c-1.849,1.857-3.732,3.68-5.649,5.468
				c-0.989,0.923-1.986,1.837-2.994,2.739c-0.739,0.662-1.634,1.482-2.657,1.611c1.756-3.987,3.795-7.847,5.766-11.729
				c2.151-4.236,4.302-8.472,6.453-12.708c1.217-2.398,2.435-4.796,3.652-7.193c0.315-0.62-0.622-1.165-0.939-0.542
				c-4.294,8.456-8.603,16.905-12.88,25.369c-1.173,2.32-2.32,4.654-3.344,7.044c-0.129,0.302-0.048,0.718,0.333,0.796
				c1.933,0.393,3.429-1.019,4.754-2.214c1.632-1.472,3.241-2.97,4.827-4.492c3.202-3.074,6.307-6.248,9.31-9.516
				c1.366-1.487,2.696-3.007,4.019-4.532c-0.12,1.727-0.565,3.411-1.072,5.074c-0.66,2.166-1.344,4.325-2.017,6.487
				c-1.353,4.349-2.706,8.698-4.06,13.046c-0.207,0.666,0.842,0.939,1.049,0.273c1.38-4.434,2.759-8.868,4.139-13.302
				c0.685-2.2,1.39-4.394,2.049-6.602c0.624-2.092,1.124-4.235,1.017-6.432C428.669,260.706,428.089,260.375,427.767,260.75z"/>
			<path style="fill:#3444A5;" d="M342.904,362.716c-1.245,3.047-2.49,6.094-3.735,9.141c-0.633,1.549-1.266,3.099-1.899,4.648
				c-0.597,1.462-1.085,3.069-1.836,4.458c-0.484,0.895-1.444,0.383-2.198,0.125l-2.338-0.803c-1.559-0.535-3.117-1.07-4.676-1.605
				c-1.507-0.517-3.013-1.035-4.52-1.552c-0.859-0.295-1.628-0.504-1.44-1.615c0.14-0.824,0.395-1.641,0.591-2.454
				c3.036-12.554,5.518-25.241,7.438-38.014c1.919-12.764,3.282-25.613,4.077-38.496c0.805-13.053,0.655-26.148,1.644-39.19
				c0.998-13.157,2.886-26.225,4.868-39.264c0.241-1.588,0.484-3.176,0.727-4.764c0.104-0.682-0.944-0.964-1.049-0.273
				c-2.05,13.405-4.1,26.822-5.302,40.335c-1.209,13.597-1.067,27.247-1.836,40.868c-0.762,13.504-2.147,26.973-4.153,40.349
				c-1.996,13.314-4.603,26.537-7.812,39.612c-0.271,1.105-0.666,2.392,0.36,3.236c0.455,0.374,1.068,0.532,1.615,0.719
				c0.831,0.285,1.663,0.571,2.494,0.856c3.169,1.088,6.336,2.183,9.508,3.264c1.153,0.393,2.212,0.499,2.888-0.694
				c0.761-1.343,1.227-2.932,1.811-4.36c1.308-3.202,2.617-6.404,3.925-9.605c0.633-1.549,1.266-3.098,1.899-4.648
				C344.216,362.346,343.165,362.077,342.904,362.716z"/>
			<path style="fill:#E59810;" d="M362.026,186.663c-1.217,2.583-2.434,5.166-3.651,7.749c-0.609,1.291-1.217,2.583-1.826,3.874
				c-0.217,0.46-1.344,3.423-1.823,3.251c-0.144-0.052-0.21-0.638-0.244-0.762c-0.092-0.346-0.184-0.691-0.275-1.037
				c-0.183-0.692-0.364-1.383-0.544-2.076c-0.36-1.385-0.715-2.771-1.063-4.158c-0.698-2.775-1.372-5.556-2.025-8.342
				c-0.16-0.681-1.206-0.398-1.047,0.281c1.143,4.876,2.353,9.735,3.633,14.576c0.025,0.096,0.049,0.202,0.072,0.314
				c-0.467-1.116-1.012-2.2-1.826-3.107c-1.042-1.162-2.577-2-4.172-1.869c-0.291,0.024-0.541,0.236-0.539,0.545
				c0.002,0.276,0.252,0.563,0.545,0.539c1.361-0.112,2.587,0.616,3.457,1.618c0.965,1.111,1.502,2.537,2.022,3.893
				c0.105,0.273,0.36,0.465,0.664,0.383c0.147-0.039,0.276-0.161,0.349-0.307c0.144,0.259,0.329,0.473,0.59,0.584
				c0.773,0.326,1.46-0.332,1.826-0.954c0.612-1.039,1.055-2.221,1.569-3.312c0.532-1.13,1.065-2.26,1.597-3.39
				c1.217-2.583,2.434-5.166,3.651-7.749C363.26,186.578,362.324,186.031,362.026,186.663z"/>
			<path style="fill:#E59810;" d="M356.031,203.449c-0.06-0.69-1.145-0.691-1.084,0.006c0.602,6.9,0.79,13.83,0.564,20.753
				c-0.023,0.697,1.061,0.692,1.084-0.006C356.821,217.28,356.632,210.35,356.031,203.449z"/>
			<path style="fill:#E59810;" d="M373.916,271.067c-8.684,5.869-17.014,12.254-24.936,19.117c-0.528,0.458,0.236,1.227,0.761,0.772
				c7.852-6.802,16.104-13.13,24.711-18.947C375.029,271.62,374.495,270.676,373.916,271.067z"/>
			<path style="fill:#E59810;" d="M376.389,283.869c-7.104,2.221-13.997,5.088-20.58,8.561c-0.619,0.326-0.079,1.267,0.537,0.942
				c6.504-3.431,13.305-6.261,20.324-8.456C377.335,284.708,377.057,283.66,376.389,283.869z"/>
		</g>
		<g>
			<path style="fill:#FCBC70;" d="M335.48,411.31c-0.31,0.24-0.66,0.28-1.04,0.32c-0.28,0.03-0.46,0.02-0.59,0.3
				c-0.08,0.17-0.1,0.36-0.19,0.53c-0.72,1.48-2.64,1.53-3.98,1.04c-0.95-0.34-1.82-0.81-2.79-1.08c-0.95-0.26-1.9-0.45-2.8-0.84
				c-3.18-1.38-5.04-4.71-5.68-7.98c-0.4-2.02-0.44-4.09-0.38-6.14c0.06-2.21,0.2-4.42,0.39-6.63c0.39-4.32,1.03-8.61,1.91-12.85
				c0.01-0.02,0.02-0.03,0.03-0.05c-0.04-0.31,0.2-0.67,0.6-0.56c3.06,0.84,6.1,1.77,9.12,2.77c0.96,0.33,2.2,0.56,2.8,1.48
				c0.63,0.99,0.74,2.41,0.97,3.53c0.55,2.68,0.94,5.39,1.19,8.11c0.24,2.67,0.48,5.46,0.18,8.13c-0.1,0.87-0.16,2.32-1,2.85
				c-0.36,0.23-0.78,0.2-1.17,0.07c-0.09-0.03-0.19-0.08-0.3-0.13c0.47,0.76,0.93,1.52,1.4,2.29c0.56,0.92,1.29,1.85,1.66,2.87
				C336.06,410.01,336.1,410.84,335.48,411.31z"/>
			<path style="fill:#FF9F48;" d="M335.151,392.05c-0.468-3.151-1.069-6.281-1.684-9.406c-0.125-0.633-1.09-0.37-0.966,0.259
				c0.921,4.672,1.958,9.421,2.215,14.187c0.122,2.253-0.004,4.54-0.734,6.691c-0.064,0.189-0.14,0.66-0.296,0.772
				c-0.229,0.164-0.386-0.214-0.492-0.372c-0.29-0.43-0.552-0.879-0.792-1.338c-0.493-0.943-0.879-1.936-1.194-2.952
				c-0.706-2.279-1.061-4.647-1.405-7.001c-0.093-0.636-1.058-0.372-0.966,0.259c0.349,2.389,0.709,4.792,1.436,7.101
				c0.344,1.093,0.771,2.167,1.309,3.18c0.388,0.732,1.023,2.226,2.016,2.257c1.068,0.034,1.371-1.634,1.581-2.395
				c0.326-1.181,0.49-2.406,0.552-3.628C335.861,397.115,335.525,394.565,335.151,392.05z"/>
			<path style="fill:#FF9F48;" d="M335.887,409.633c-0.295-0.503-0.731-0.897-1.122-1.321c-0.435-0.472-0.846-0.966-1.228-1.481
				c-0.795-1.073-1.46-2.235-2.011-3.45c-0.267-0.587-1.133-0.086-0.869,0.495c0.794,1.749,1.837,3.374,3.106,4.817
				c0.325,0.37,2.111,1.924,1.099,2.261c-0.895,0.298-2.127-0.262-2.897-0.678c-3.063-1.658-5.582-4.503-7.242-7.529
				c-0.956-1.743-1.638-3.613-2.045-5.558c-0.132-0.631-1.098-0.37-0.966,0.259c0.836,3.991,2.853,7.704,5.735,10.589
				c1.438,1.439,3.162,2.868,5.085,3.592c0.24,0.512,0.482,1.187-0.269,1.328c-0.695,0.131-1.514-0.087-2.168-0.311
				c-1.283-0.44-2.463-1.231-3.538-2.045c-2.044-1.549-3.788-3.517-5.014-5.773c-2.816-5.183-2.288-11.314-1.426-16.93
				c0.518-3.376,1.141-6.742,1.306-10.159c0.031-0.643-0.969-0.637-1,0.005c-0.218,4.543-1.28,9.032-1.76,13.553
				c-0.141,0.042-0.26,0.144-0.297,0.338c-0.447,2.336-0.809,4.696-0.9,7.076c-0.085,2.197-0.005,4.531,0.65,6.647
				c0.61,1.973,1.878,3.373,3.542,4.542c1.7,1.194,3.539,2.457,5.595,2.912c0.227,0.05,0.402-0.047,0.508-0.194
				c1.344,0.807,2.914,1.484,4.508,1.339c0.606-0.055,1.192-0.318,1.416-0.925c0.131-0.355,0.109-0.721,0.02-1.077
				c0.619,0.106,1.266,0.102,1.778-0.167C336.331,411.341,336.32,410.372,335.887,409.633z M318.966,404.688
				c-0.611-2.316-0.659-4.764-0.453-7.194c0.014,0.186,0.023,0.372,0.041,0.559c0.301,3.04,1.197,5.986,2.889,8.546
				c1.167,1.767,2.637,3.329,4.307,4.633c-1.212-0.558-2.341-1.336-3.422-2.081C320.677,408.013,319.486,406.659,318.966,404.688z"
				/>
		</g>
		<g>
			<path style="fill:#FCBC70;" d="M418.31,112.272c-0.261,0.598-0.766,1.009-1.27,1.401c-1.336,1.037-2.69,2.055-4.035,3.082
				l-8.079,6.146c-0.056,0.047-0.121,0.075-0.177,0.093c-0.084,0.261-0.364,0.458-0.654,0.271c-2.793-1.812-7.165-5.352-9.958-7.154
				c-2.438-1.578-4.875-3.147-7.304-4.717c-1.205-0.785-2.419-1.541-3.605-2.335c-0.943-0.635-2.139-1.354-2.793-2.298
				c-1.644-2.372,3.904-2.354,4.978-2.288c2.288,0.131,4.52,0.7,6.715,1.345c-2.391-3.306-4.829-6.575-7.322-9.797
				c-2.185-2.83-4.548-5.585-6.295-8.723c-0.439-0.785-0.841-1.597-1.177-2.428c-0.233-0.56-0.616-1.326-0.131-1.859
				c0.476-0.514,1.41-0.308,1.989-0.131c0.803,0.243,1.513,0.691,2.185,1.186c4.11,3.017,7.817,6.659,11.04,10.638
				c-1.261-2.475-2.54-4.941-3.792-7.425c-0.915-1.812-1.821-3.633-2.718-5.454c-0.85-1.718-1.681-3.456-2.27-5.277
				c-0.327-0.981-1.027-3.344,0.813-3.288c1.597,0.056,2.942,1.7,3.913,2.783c4.24,4.763,7.481,10.264,10.563,15.831
				c-0.57-2.961-1.149-5.912-1.718-8.873c-0.383-1.971-0.766-3.941-1.139-5.903c-0.336-1.719-0.719-3.484-0.206-5.212
				c0.065-0.205,0.243-0.336,0.458-0.346c0.962-0.065,1.494,0.841,1.98,1.532c0.635,0.906,1.242,1.821,1.831,2.746
				c1.177,1.868,2.26,3.783,3.26,5.753c1.672,3.297,3.063,6.725,4.193,10.246c0.327-2.27,0.691-4.53,1.065-6.781
				c0.42-2.484,0.616-5.277,2.139-7.379c0.224-0.317,0.747-0.308,0.859,0.112c0.971,3.642,1.821,7.313,2.54,11.021
				c1.27,6.473,3.747,14.766,4.251,21.351C418.497,110.853,418.6,111.6,418.31,112.272z"/>
			<path style="fill:#FF9F48;" d="M414.793,88.953c-0.292-1.727-0.607-3.45-0.943-5.168c-0.161-0.822-0.327-1.643-0.498-2.463
				c-0.179-0.861-0.309-1.764-0.576-2.603c-0.382-1.197-1.552-1.838-2.544-0.802c-0.989,1.033-1.363,2.703-1.627,4.059
				c-0.634,3.267-0.964,6.598-1.28,9.915c-2.553-6.002-4.244-12.43-7.903-17.894c-0.914-1.364-2.093-3.018-3.951-2.742
				c-0.16,0.024-0.292,0.187-0.331,0.333c-0.485,1.809-0.188,3.654,0.225,5.446c0.447,1.937,0.928,3.867,1.394,5.799
				c0.467,1.942,0.935,3.885,1.403,5.827c0.234,0.971,0.467,1.942,0.701,2.914c0.114,0.475,0.252,0.959,0.334,1.447
				c-3.62-6.385-6.606-13.371-12.22-18.296c-0.909-0.797-2.808-2.662-4.023-1.335c-0.478,0.523-0.409,1.298-0.258,1.935
				c0.213,0.896,0.521,1.782,0.828,2.649c1.269,3.587,3.027,6.975,4.914,10.271c1.223,2.136,2.496,4.244,3.741,6.367
				c-3.386-4.079-7.037-7.955-11.509-10.842c-0.9-0.581-2.86-1.993-3.738-0.605c-0.43,0.681-0.066,1.47,0.301,2.084
				c0.478,0.799,0.986,1.582,1.503,2.356c2.077,3.108,4.39,6.048,6.68,8.998c2.392,3.081,4.745,6.2,6.797,9.52
				c-2.038-0.918-4.201-1.532-6.43-1.788c-1.312-0.151-2.732-0.262-4.043-0.047c-1.014,0.166-2.104,1.018-1.73,2.168
				c0.168,0.517,0.616,0.853,1.037,1.158c0.651,0.472,1.318,0.923,1.983,1.375c1.27,0.863,2.556,1.702,3.856,2.518
				c2.49,1.563,5.125,3.484,7.701,4.9c2.777,1.526,6.537,5.155,9.321,6.62c0.532,0.28,1.154-0.304,0.665-0.656
				c-4.337-3.124-9.997-7.354-14.316-9.905c-2.361-1.394-4.676-2.865-6.941-4.41c-0.544-0.371-1.085-0.744-1.622-1.125
				c-0.477-0.338-1.193-0.853-0.544-1.427c0.449-0.397,1.206-0.355,1.763-0.368c0.686-0.016,1.372,0.002,2.056,0.054
				c2.933,0.222,5.795,1.102,8.367,2.521c0.526,0.29,0.994-0.518,0.467-0.809c-0.04-0.022-0.083-0.038-0.123-0.06
				c0.001-0.075-0.012-0.153-0.06-0.235c-3.526-5.959-8.121-11.163-12.177-16.751c-1.013-1.396-1.993-2.817-2.91-4.278
				c-0.248-0.396-1.547-2.237-0.278-2.031c0.725,0.118,1.428,0.694,2.029,1.085c2.767,1.799,5.233,4.019,7.502,6.407
				c2.571,2.705,4.896,5.629,7.212,8.552c0.34,0.429,0.975-0.11,0.738-0.559c-3.269-6.207-7.357-11.98-10.172-18.424
				c-0.708-1.622-1.325-3.285-1.817-4.985c-0.168-0.582-0.577-2.045,0.572-1.68c0.773,0.246,1.47,0.975,2.066,1.502
				c2.599,2.299,4.668,5.12,6.467,8.07c2.27,3.722,4.142,7.669,6.371,11.415c0.206,0.347,0.755,0.287,0.858-0.114
				c0.225-0.874,0.095-1.733-0.104-2.6c-0.224-0.969-0.465-1.935-0.698-2.902c-0.467-1.942-0.935-3.885-1.403-5.827
				c-0.468-1.942-0.935-3.885-1.403-5.827c-0.434-1.804-0.887-3.666-0.497-5.509c0.901,0.033,1.629,0.896,2.122,1.567
				c0.629,0.855,1.19,1.767,1.715,2.689c1.05,1.843,1.93,3.779,2.728,5.743c1.592,3.916,2.899,7.945,4.671,11.788
				c0.216,0.469,0.833,0.179,0.873-0.234c0.311-3.206,0.62-6.414,1.107-9.599c0.22-1.442,0.422-2.94,0.994-4.294
				c0.167-0.396,0.762-1.844,1.37-1.419c0.451,0.315,0.509,1.356,0.611,1.829c1.363,6.325,2.428,12.715,3.183,19.141
				c0.422,3.592,2.327,8.932,2.56,12.542c0.039,0.597,0.973,0.597,0.934-0.005C418.384,104.793,415.981,95.974,414.793,88.953z"/>
		</g>
		<g>
			<path style="fill:#38364C;" d="M368.403,127.147c2.461,2.959,3.87,6.808,3.794,10.656c-0.087,4.293-1.919,8.628-0.91,12.758
				c-0.629-1.041-1.268-2.092-1.908-3.133c-0.314-0.52-0.629-1.051-0.715-1.659c-0.098-0.672,0.119-1.344,0.293-2.005
				c0.542-1.973,0.802-4.032,0.759-6.081c-0.043-2.287-0.694-4.91-2.753-5.897c-2.471-1.171-5.442,0.813-6.602,3.295
				c-1.171,2.471-1.182,5.312-1.843,7.967c-3.837-2.482-6.981-6.016-8.997-10.114c-1.225-2.482-2.07-5.192-3.87-7.284
				c-1.789-2.103-4.975-3.393-7.349-1.984c-1.127,0.672-1.875,1.821-2.656,2.894c-1.312,1.821-2.905,3.588-5.03,4.314
				c-2.146,0.737-4.553,0.336-6.688,1.073c-2.461,0.824-4.173,2.981-6.016,4.802c-1.312,1.312-2.938,2.547-4.672,2.959
				c-0.705,0.173-1.42,0.206-2.146,0.065c-2.58-0.499-4.271-3.187-4.499-5.81c-0.217-2.623,0.694-5.192,1.637-7.653
				c0.932-2.439,2.081-5.084,4.434-6.222c1.669-0.813,3.621-0.683,5.431-1.117c4.531-1.095,7.501-5.452,11.675-7.512
				c2.461-1.214,5.279-1.604,7.642-2.97c1.463-0.845,2.688-2.027,4.108-2.938c1.42-0.921,3.154-1.561,4.78-1.127
				c3.404,0.9,4.108,5.474,6.699,7.859c1.767,1.637,4.347,2.135,6.157,3.718c1.561,1.377,2.385,3.382,3.588,5.084
				C364.349,123.343,366.636,125.023,368.403,127.147z"/>
			<path style="fill:#525172;" d="M359.107,135.548l-0.416,3.693c-0.069,0.615-0.138,1.231-0.208,1.846
				c-0.072,0.638-0.059,1.398-0.901,1.045c-0.897-0.376-1.71-1.236-2.386-1.913c-0.723-0.724-1.386-1.511-1.988-2.338
				c-2.688-3.696-4.281-8.027-6.52-11.984c-0.344-0.609-1.286-0.07-0.942,0.537c2.076,3.67,3.592,7.651,5.946,11.163
				c1.032,1.54,2.215,2.996,3.62,4.211c0.893,0.773,2.934,2.492,3.911,0.874c0.241-0.4,0.264-0.885,0.315-1.336
				c0.07-0.615,0.139-1.231,0.208-1.847l0.445-3.957C360.269,134.85,359.185,134.861,359.107,135.548z"/>
			<path style="fill:#525172;" d="M342.05,120.46c-2.131-0.828-4.532-0.727-6.609,0.216c-2.088,0.948-3.325,2.867-5.074,4.251
				c-0.964,0.763-2.043,1.127-3.27,1.15c-1.211,0.023-2.414-0.18-3.626-0.15c-1.111,0.028-2.212,0.276-3.126,0.933
				c-0.879,0.631-1.523,1.501-2.134,2.382c-1.455,2.099-3.995,5.295-6.896,3.524c-0.596-0.364-1.138,0.575-0.542,0.939
				c2.115,1.291,4.639,0.358,6.283-1.248c0.839-0.819,1.485-1.799,2.152-2.757c0.685-0.983,1.466-1.997,2.634-2.417
				c2.313-0.834,4.859,0.36,7.208-0.411c2.146-0.704,3.446-2.625,5.077-4.053c2.103-1.842,5.054-2.318,7.65-1.31
				C342.425,121.761,342.695,120.711,342.05,120.46z"/>
			<path style="fill:#525172;" d="M312.839,124.832c-0.142-0.227-0.494-0.38-0.739-0.202c-1.176,0.849-1.901,2.238-1.841,3.699
				c0.012,0.283,0.245,0.554,0.545,0.539c0.285-0.014,0.552-0.242,0.539-0.545c-0.006-0.147-0.005-0.295,0.007-0.442
				c0.003-0.033,0.006-0.065,0.009-0.098c0.001-0.015,0.001-0.014,0.002-0.022c0.001-0.003,0.001,0.001,0.003-0.009
				c0.015-0.072,0.024-0.145,0.04-0.217c0.031-0.144,0.07-0.287,0.117-0.426c0.01-0.031,0.021-0.062,0.033-0.093
				c0.003-0.007,0.018-0.047,0.027-0.071c0.008-0.017,0.017-0.041,0.019-0.045c0.017-0.037,0.034-0.075,0.052-0.112
				c0.061-0.125,0.129-0.247,0.203-0.365c0.039-0.063,0.08-0.124,0.123-0.184c-0.001,0.001,0.029-0.04,0.045-0.062
				c0.012-0.015,0.027-0.034,0.03-0.038c0.094-0.114,0.194-0.222,0.3-0.324c0.053-0.051,0.108-0.1,0.164-0.148
				c0.025-0.021,0.051-0.042,0.076-0.062c0.013-0.01,0.01-0.009,0.017-0.014c0.006-0.004,0.007-0.005,0.028-0.019
				C312.866,125.406,313.006,125.098,312.839,124.832z"/>
			<path style="fill:#525172;" d="M351.728,124.055c-1.48-1.406-3.721-1.485-5.169-2.927c-1.32-1.314-1.985-3.136-3.3-4.46
				c-1.41-1.419-3.429-1.938-5.382-1.692c-2.426,0.305-4.496,1.74-6.246,3.365c-0.512,0.476,0.251,1.246,0.761,0.772
				c1.476-1.37,3.189-2.615,5.207-3.002c1.9-0.364,3.845,0.13,5.148,1.596c1.087,1.223,1.736,2.769,2.845,3.978
				c1.266,1.379,3,1.664,4.562,2.552c1.903,1.082,2.379,3.344,2.776,5.327c0.137,0.685,1.183,0.401,1.047-0.281
				C353.607,127.433,353.15,125.406,351.728,124.055z"/>
			<path style="fill:#525172;" d="M356.434,129.769c-0.28-0.162-0.562-0.036-0.74,0.198c-1.672,2.194-3.286,4.431-4.843,6.709
				c-0.394,0.576,0.547,1.115,0.939,0.542c1.556-2.277,3.171-4.514,4.843-6.709C356.81,130.276,356.665,129.902,356.434,129.769z"/>
			<path style="fill:#525172;" d="M358.049,133.207c-0.274-0.158-0.57-0.041-0.74,0.198l-4.109,5.762
				c-0.17,0.239-0.038,0.604,0.198,0.74c0.274,0.158,0.57,0.041,0.74-0.198l4.109-5.762
				C358.417,133.709,358.285,133.344,358.049,133.207z"/>
		</g>
		<g>
			<path style="fill:#FF9F48;" d="M339,162.202c-1.126,0.534-2.251,1.068-3.377,1.602c-1.687-3.591-3.521-7.111-5.506-10.547
				c-0.35-0.605-1.291-0.067-0.942,0.537c2.069,3.58,3.978,7.249,5.722,10.998c0.13,0.279,0.493,0.319,0.74,0.202
				c1.3-0.617,2.6-1.234,3.9-1.85C340.169,162.844,339.627,161.905,339,162.202z"/>
			<path style="fill:#38364C;" d="M325.556,147.543c-0.151-0.241-0.382-0.451-0.669-0.512c-0.292-0.062-0.539-0.013-0.81,0.107
				c-1.014,0.449-1.977,1.005-2.871,1.66c-0.243,0.178-0.433,0.365-0.512,0.669c-0.066,0.252-0.034,0.586,0.108,0.81
				c0.151,0.241,0.382,0.451,0.669,0.512c0.258,0.055,0.588,0.055,0.81-0.107c0.895-0.655,1.857-1.211,2.871-1.66
				c0.242-0.107,0.448-0.424,0.512-0.669C325.729,148.1,325.697,147.767,325.556,147.543z"/>
			<path style="fill:#38364C;" d="M342.222,139.55c-0.189-0.601-0.73-0.872-1.328-0.766c-2.009,0.355-3.954,1.173-5.609,2.365
				c-0.459,0.331-0.739,0.948-0.405,1.479c0.285,0.454,0.988,0.759,1.479,0.405c0.784-0.565,1.621-1.029,2.505-1.418
				c0.02-0.009,0.018-0.007,0.031-0.013c0.048-0.019,0.096-0.038,0.144-0.056c0.116-0.044,0.232-0.087,0.349-0.129
				c0.205-0.072,0.411-0.139,0.619-0.201c0.476-0.141,0.96-0.252,1.449-0.339C342.016,140.779,342.388,140.076,342.222,139.55z"/>
			<path style="fill:#38364C;" d="M325.53,152.347c-2.092,0-2.081,3.252,0.017,3.252C327.64,155.599,327.629,152.347,325.53,152.347
				z"/>
			<path style="fill:#38364C;" d="M340.438,143.87c-2.092,0-2.081,3.252,0.017,3.252C342.548,147.122,342.537,143.87,340.438,143.87
				z"/>
			<path style="fill:#FFFFFF;" d="M335.281,171.011l9.86-6.607c0,0,3.021,6.188-1.752,8.945
				C338.615,176.107,335.281,171.011,335.281,171.011z"/>
		</g>
	</g>
	<g>
		<g>
			<path style="fill:#FCBC70;" d="M262.269,172.014c0.228,0.943,0.423,1.995-0.076,2.818c-1.106,1.778-4.314,0.824-5.55,2.504
				c-0.249,0.336-0.39,0.77-0.715,1.03c-0.715,0.585-1.756,0.108-2.645-0.119c-1.745-0.434-3.718,0.336-4.704,1.832
				c-0.271,0.401-0.52,0.889-0.986,0.987c-0.369,0.087-0.737-0.108-1.073-0.271c-1.951-0.976-4.455-1.236-6.211,0.043
				c-1.387,1.019-2.211,2.894-3.891,3.285c-1.485,0.347-3.003-0.661-4.52-0.499c-2.287,0.228-3.425,2.764-4.553,4.77
				c-0.098,0.163-0.206,0.336-0.379,0.401c-0.434,0.174-0.791-0.379-0.932-0.824c-2.428-7.371-4.683-14.786-6.775-22.243
				c-0.087-1.442,0.618-2.938,1.572-4.076c1.192-1.442,2.764-2.537,3.989-3.957c2.298-2.623,3.404-6.287,6.211-8.347
				c5.214-3.805,13.528-0.293,18.46-4.444c0.238-0.206,0.509-0.434,0.813-0.39c0.228,0.032,0.412,0.206,0.575,0.368
				c4.228,4.412,6.504,10.309,8.336,16.141C260.361,164.654,261.38,168.318,262.269,172.014z"/>
			<path style="fill:#38364C;" d="M219.256,165.727c2.092,7.458,4.347,14.872,6.775,22.243c0.141,0.444,0.499,0.997,0.932,0.824
				c0.173-0.065,0.282-0.238,0.379-0.401c1.127-2.005,2.266-4.542,4.553-4.77c1.518-0.163,3.035,0.845,4.52,0.499
				c1.68-0.39,2.504-2.266,3.891-3.285c1.756-1.279,2.492-1.538,4.444-0.562c0.336,0.163,0.705,0.358,1.073,0.271
				c0.466-0.097,0.715-0.585,0.986-0.986c0.986-1.496,4.727-1.747,6.472-1.313c0.889,0.228,1.93,0.705,2.645,0.119
				c0.325-0.26,0.466-0.694,0.715-1.03c1.236-1.68,4.444-0.726,5.55-2.504c0.499-0.824,0.304-1.875,0.076-2.818
				c-0.889-3.696-1.908-7.36-3.057-10.992c-1.832-5.832-4.108-11.729-8.336-16.141c-0.163-0.163-0.347-0.336-0.575-0.368
				c-0.303-0.043-0.574,0.184-0.813,0.39c-4.932,4.152-13.246,0.64-18.46,4.444c-2.808,2.06-3.913,5.723-6.211,8.347
				c-1.225,1.42-2.797,2.515-3.989,3.957C219.874,162.789,219.17,164.285,219.256,165.727z M230.649,199.927
				c-0.737-0.314-1.485-0.596-2.168-1.008c-2.569-1.518-3.913-4.444-5.041-7.219c-0.954-2.363-1.864-4.748-2.721-7.154
				c-0.108-0.325-0.249-0.683-0.52-0.9c-0.347-1.669-0.694-3.339-1.03-5.008c-0.455-2.19-0.921-4.444-1.962-6.396
				c0.076,0.033,0.152,0.065,0.228,0.108c-2.092-3.263-4.217-6.58-5.312-10.309c-1.106-3.718-1.051-7.967,1.03-11.241
				c2.341-3.696,6.807-5.583,9.301-9.181c0.921-1.323,1.539-2.84,2.602-4.043c1.355-1.55,3.306-2.439,5.182-3.274
				c1.756-0.781,3.577-1.583,5.463-1.745c1.691-0.455,3.577-0.184,5.04,0.77c0.878,0.564,1.604,1.355,2.515,1.864
				c1.886,1.062,4.238,0.781,6.32,1.388c2.58,0.748,4.596,2.851,5.864,5.214c1.279,2.363,1.94,5.008,2.645,7.599
				c1.594,5.756,3.534,11.425,5.821,16.954c0.423,1.03,0.856,2.049,1.301,3.068c1.182,2.688,2.471,5.496,2.276,8.423
				c-0.228,3.382-2.396,6.298-3.306,9.572c-0.499,1.778-0.618,3.653-0.954,5.474c-0.141,0.781-0.336,1.55-0.564,2.298
				c-1.052,3.512-2.97,6.764-5.55,9.366c-0.726,0.737-1.539,1.442-2.515,1.778c-2.829,0.986-5.713-1.29-8.694-1.55
				c-3.165-0.293-6.601,1.669-9.355,0.098c-1.572-0.9-2.385-2.721-3.816-3.826C232.102,200.566,231.375,200.23,230.649,199.927z"/>
			<path style="fill:#525172;" d="M251.651,139.004c0.259,2.965-1.943,5.376-4.539,6.458c-2.988,1.247-6.31,1.065-9.477,1.128
				c-1.534,0.03-3.173,0.035-4.652,0.493c-1.273,0.394-2.229,1.208-2.972,2.298c-0.754,1.106-1.258,2.36-1.97,3.492
				c-0.8,1.272-1.784,2.411-2.901,3.414c-1.305,1.171-2.73,2.199-3.816,3.593c-0.986,1.266-1.682,2.719-2.081,4.272
				c-0.174,0.675,0.875,0.951,1.049,0.273c0.388-1.507,1.075-2.925,2.074-4.124c0.977-1.172,2.213-2.08,3.353-3.082
				c1.145-1.007,2.159-2.15,3.008-3.418c0.757-1.13,1.286-2.384,2-3.538c0.809-1.307,1.874-2.068,3.397-2.339
				c1.675-0.298,3.42-0.254,5.115-0.271c3.058-0.031,6.249-0.13,9.036-1.541c2.632-1.333,4.726-4.051,4.458-7.116
				C252.675,138.308,251.591,138.307,251.651,139.004z"/>
			<path style="fill:#525172;" d="M245.56,139.508c-2.838,2.351-6.779,2.056-10.224,2.341c-3.098,0.256-6.328,1.098-8.218,3.764
				c-0.403,0.569,0.538,1.107,0.939,0.542c2.029-2.861,5.871-3.168,9.068-3.334c3.225-0.167,6.602-0.392,9.197-2.541
				C246.859,139.835,246.093,139.066,245.56,139.508z"/>
			<path style="fill:#525172;" d="M224.328,150.018c-0.305-0.08-0.561,0.112-0.661,0.388c-0.963,2.645-2.913,4.876-5.378,6.224
				c-0.614,0.336-0.075,1.277,0.537,0.942c2.732-1.495,4.826-3.972,5.89-6.893C224.817,150.404,224.592,150.087,224.328,150.018z"/>
			<path style="fill:#525172;" d="M263.89,177.659c-0.064,1.674-0.487,3.315-1.286,4.791c-0.696,1.283-1.669,2.427-2.044,3.866
				c-0.682,2.615,0.962,6.366-1.411,8.381c-0.533,0.452,0.232,1.221,0.761,0.772c2.612-2.217,1.046-5.791,1.643-8.643
				c0.334-1.592,1.512-2.828,2.209-4.261c0.749-1.54,1.147-3.202,1.212-4.911C265,176.956,263.916,176.962,263.89,177.659z"/>
			<path style="fill:#525172;" d="M257.849,197.73c-0.307-0.08-0.559,0.113-0.661,0.388c-0.602,1.614-1.757,3.053-3.214,4.005
				c-0.245,0.16-0.353,0.475-0.202,0.74c0.138,0.243,0.493,0.363,0.739,0.202c1.716-1.12,3.011-2.755,3.727-4.673
				C258.34,198.116,258.111,197.798,257.849,197.73z"/>
		</g>
		<path style="fill:#FCBC70;" d="M230.129,207.525c0.173-2.536,0.347-5.073,0.52-7.599c0.726,0.304,1.452,0.64,2.081,1.117
			c1.431,1.106,2.244,2.927,3.816,3.826c2.753,1.572,6.19-0.39,9.355-0.098c2.981,0.26,5.864,2.536,8.694,1.55
			c0.976-0.336,1.788-1.041,2.515-1.778c2.58-2.602,4.499-5.854,5.55-9.366c1.463,5.073,3.219,10.059,5.225,14.937
			c0.466,1.127,0.943,2.244,1.431,3.36c0.163,0.379,0.336,0.77,0.293,1.171c-0.043,0.325-0.217,0.618-0.39,0.9
			c-5.106,8.227-10.829,16.076-17.105,23.447c-0.163,0.195-0.336,0.39-0.574,0.488c-0.705,0.314-1.409-0.401-1.854-1.041
			c-6.168-8.856-12.347-17.712-18.525-26.579c-0.39-0.553-0.781-1.127-0.965-1.789c-0.184-0.672-0.141-1.377-0.098-2.06
			C230.107,207.851,230.118,207.688,230.129,207.525z"/>
		<g>
			<path style="fill:#FFC23B;" d="M298.29,425.419c0.011,0.737,0.033,1.485,0.043,2.233h-105.44v-0.293
				c0.52-16.748,0.965-40.563,1.312-57.798c1.084,0.564,2.396,0.683,3.62,0.78c15.74,1.301,31.468,2.602,47.197,3.902
				c6.266,0.52,12.564,1.041,18.818,0.52c5.789-0.488,11.512-1.854,17.322-1.81c4.293,0.033,8.564,0.846,12.867,0.748
				c0.455-0.011,0.932-0.033,1.377-0.152c-0.011,0.368-0.033,0.737-0.043,1.106c0.033,0.065,0.065,0.141,0.076,0.238
				c0.336,3.827,0.726,7.642,1.117,11.458C297.889,399.327,299.201,412.378,298.29,425.419z"/>
			<path style="fill:#F4AD21;" d="M245.413,400.227c1.312,2.471,1.322,5.398,1.301,8.195c-0.022,3.891-0.054,14.623-0.076,19.23
				h-8.672c-0.206-6.146-1.019-16.661-3.631-20.498c-1.832-2.699-4.412-4.77-6.569-7.209c-2.146-2.45-3.946-5.539-3.621-8.769
				c0.043-0.455,0.163-0.954,0.553-1.192c0.336-0.206,0.77-0.141,1.16-0.065c4.661,0.932,9.192,2.569,13.366,4.845
				C241.673,396.108,244.101,397.766,245.413,400.227z"/>
			<path style="fill:#E59810;" d="M194.775,372.114c-0.002-0.697-1.087-0.694-1.084,0.006c0.047,13.43-0.024,26.86-0.214,40.288
				c-0.054,3.785-0.117,7.57-0.189,11.355c-0.013,0.698,1.071,0.693,1.084-0.006c0.257-13.427,0.396-26.857,0.415-40.286
				C194.793,379.685,194.789,375.899,194.775,372.114z"/>
			<path style="fill:#E59810;" d="M246.692,405.143c-0.148-2.829-0.308-5.8-2.46-7.903c-1.99-1.944-4.817-2.803-7.35-3.785
				c-3.685-1.43-7.37-2.859-11.055-4.289c-0.648-0.251-0.918,0.799-0.273,1.049c3.141,1.218,6.281,2.437,9.422,3.655
				c2.569,0.997,5.448,1.806,7.693,3.459c1.1,0.809,1.927,1.886,2.344,3.193c0.462,1.449,0.508,2.987,0.587,4.493
				c0.174,3.293,0.324,6.588,0.45,9.884c0.144,3.741,0.256,7.483,0.34,11.226c0.016,0.696,1.1,0.694,1.084-0.006
				C247.319,419.124,247.059,412.131,246.692,405.143z"/>
			<path style="fill:#E59810;" d="M284.773,387.686c-0.158-3.505-0.349-7.009-0.572-10.511c-0.044-0.693-1.128-0.693-1.084,0.006
				c0.785,12.391,1.172,24.806,1.15,37.222c-0.006,3.509-0.045,7.018-0.116,10.526c-0.014,0.698,1.07,0.693,1.084-0.006
				C285.484,412.51,285.332,400.089,284.773,387.686z"/>
		</g>
		<g>
			<path style="fill:#FCBC70;" d="M159.4,205.02c5.5,3.7,11.45,6.73,17.67,9.03c-2.05,8.75-3.61,17.63-4.69,26.55
				c-10.62-6.96-21.29-14.05-30.1-23.19c-2.05-2.11-4.06-4.49-4.64-7.37c-0.49-2.46,0.12-5,0.73-7.44
				c4.6-18.62,8.75-37.36,12.44-56.19c-0.01-0.05-0.04-0.09-0.04-0.14c-0.28-2.57-0.55-5.14-0.83-7.7
				c-0.24-2.23-0.48-4.45-0.72-6.67c-0.22-2.08-0.42-4.17-0.26-6.26c0.08-0.98,0.19-2,0.49-2.94c0.19-0.62,0.6-1.33,1.31-1.42
				c0.75-0.09,1.17,0.54,1.4,1.16c0.05,0.12,0.09,0.25,0.13,0.37c0.07-1.36,0.18-2.72,0.35-4.07c0.26-2.04,0.63-4.07,1.11-6.08
				c0.44-1.81,0.92-3.64,1.68-5.34c0.39-0.88,1.72-3.74,3.07-2.45c0.55,0.53,0.43,1.52,0.45,2.2c0.01,0.24,0.02,0.48,0.03,0.72
				c0.23-0.41,0.49-0.8,0.79-1.17c0.72-0.87,1.79-1.86,3-1.83c1.36,0.03,1.7,1.33,1.71,2.45c0.01,1.05,0,2.09,0,3.14
				c0.28-0.39,0.58-0.75,0.92-1.08c0.62-0.59,1.62-1.54,2.53-1.53c0.83,0.01,1.19,0.8,1.29,1.52c0.15,1.11,0.1,2.28,0.06,3.41
				c-0.09,2.45-0.4,4.89-0.53,7.35c-0.2,3.73-0.13,7.48,0.18,11.2c0.2-0.12,0.4-0.24,0.59-0.37c1.25-0.8,2.44-1.68,3.74-2.4
				c1.01-0.57,3.26-1.85,4.35-0.81c0.17,1.03-0.39,2.28-0.99,3.24c-3.8,6.18-7.85,12.22-12.11,18.1l-0.2,0.01
				c0.4,7.56-0.42,15.15-1.25,22.68C161.84,182.8,160.62,193.91,159.4,205.02z"/>
			<path style="fill:#FF9F48;" d="M176.338,213.758c-4.463-1.903-8.747-4.215-12.776-6.919c-0.512-0.344-1.02-0.693-1.523-1.049
				c-0.466-0.329-1.118-0.663-1.474-1.112c-0.382-0.483-0.164-1.309-0.117-1.875c0.06-0.711,0.12-1.423,0.179-2.134l0.661-7.868
				c0.25-2.978,0.501-5.957,0.751-8.935c0.058-0.695-1.026-0.686-1.084,0.006c-0.467,5.557-0.934,11.114-1.401,16.67
				c-0.056,0.667-0.112,1.334-0.168,2c-0.051,0.609-0.183,1.276-0.084,1.885c0.181,1.118,1.35,1.705,2.194,2.302
				c2.081,1.471,4.236,2.838,6.453,4.095c2.54,1.439,5.161,2.729,7.847,3.874C176.429,214.967,176.979,214.032,176.338,213.758z"/>
			<path style="fill:#FF9F48;" d="M178.673,128.03c-0.083-0.984-0.854-1.637-1.844-1.543c-0.646,0.061-1.237,0.39-1.805,0.679
				c-0.705,0.358-1.406,0.723-2.104,1.095c-1.396,0.743-2.777,1.513-4.145,2.306c-0.558,0.323-0.062,1.192,0.495,0.869
				c2.154-1.249,4.34-2.448,6.567-3.561c0.423-0.211,1.227-0.659,1.655-0.242c0.333,0.324,0.178,0.958,0.062,1.341
				c-0.331,1.097-0.954,2.143-1.553,3.112c-2.383,3.855-5.419,7.268-8.09,10.918c-1.512,2.065-2.918,4.207-4.068,6.497
				c-0.288,0.573,0.576,1.076,0.866,0.5c2.295-4.571,5.607-8.489,8.696-12.529c1.559-2.038,3.157-4.119,4.327-6.412
				C178.196,130.152,178.762,129.082,178.673,128.03z"/>
			<path style="fill:#FF9F48;" d="M167.905,107.603c-1.151,0.003-2.195,0.712-2.992,1.617c0.047-0.423,0.095-0.845,0.129-1.269
				c0.115-1.456,0.231-3.728-1.75-3.901c-1.589-0.138-2.821,1.093-3.762,2.334c0.016-0.415,0.028-0.83,0.013-1.242
				c-0.019-0.517-0.139-1.079-0.583-1.399c-1.064-0.767-2.291,0.485-2.914,1.262c-1.697,2.116-2.287,5.059-2.841,7.647
				c-0.599,2.793-0.958,5.634-1.096,8.487c-0.522-0.75-1.439-0.988-2.052-0.174c-0.302,0.401-0.427,0.902-0.551,1.38
				c-0.186,0.714-0.325,1.439-0.426,2.169c-0.182,1.317-0.25,2.646-0.245,3.975c0.01,2.862,0.27,5.73,0.476,8.583
				c0.228,3.144,0.512,6.282,0.926,9.407c-0.997,6.115-2.294,12.174-3.563,18.237c-1.273,6.084-2.547,12.168-3.82,18.252
				c-0.709,3.387-1.418,6.774-2.127,10.161c-1.147,3.509-2.041,7.098-2.65,10.74c-0.521,3.113-1.464,7.216,1.123,9.693
				c0.465,0.445,1.178-0.257,0.712-0.702c-1.204-1.153-1.483-2.812-1.416-4.413c0.073-1.759,0.399-3.529,0.711-5.259
				c0.568-3.148,1.356-6.251,2.328-9.297c0.044-0.054,0.078-0.121,0.096-0.206c0.022-0.104,0.044-0.208,0.066-0.313
				c0.029-0.09,0.055-0.182,0.085-0.272c0.027-0.082,0.03-0.157,0.02-0.225c2.505-11.956,5.064-23.903,7.495-35.875
				c0.689-3.393,1.339-6.794,1.897-10.212c0.034-0.082,0.056-0.171,0.042-0.275c-0.673-4.962-1.009-9.976-1.296-14.973
				c-0.141-2.445-0.21-4.926,0.194-7.35c0.096-0.574,0.217-1.145,0.367-1.707c0.101-0.379,0.296-1.375,0.777-0.798
				c0.648,0.778,0.782,2.105,0.972,3.062c0.566,2.841,0.971,5.711,1.225,8.596c0.056,0.636,1.057,0.638,1-0.005
				c-0.255-2.888-0.655-5.764-1.212-8.609c-0.074-0.379-0.151-0.766-0.235-1.153c0.001-0.014,0.008-0.024,0.008-0.039
				c0.011-2.93,0.259-5.854,0.765-8.741c0.447-2.545,0.95-5.296,2.079-7.641c0.234-0.487,0.504-0.962,0.832-1.393
				c0.283-0.372,0.928-1.24,1.444-1.242c0.615-0.003,0.368,1.523,0.359,1.873c-0.019,0.745-0.039,1.49-0.058,2.235
				c-0.076,2.938-0.152,5.876-0.229,8.814c-0.087,3.352-0.174,6.704-0.261,10.055c-0.017,0.643,0.983,0.639,1-0.005
				c0.168-6.477,0.336-12.955,0.504-19.432c0.075-0.036,0.145-0.086,0.202-0.169c0.598-0.874,1.228-1.805,2.133-2.39
				c0.399-0.258,0.902-0.501,1.393-0.458c0.63,0.055,0.832,0.603,0.891,1.15c0.116,1.084-0.079,2.258-0.212,3.334
				c-0.155,1.266-0.354,2.526-0.512,3.792c-0.619,4.971-0.784,9.988-0.504,14.989c0.036,0.64,1.036,0.64,1-0.005
				c-0.253-4.529-0.145-9.075,0.341-13.586c0.116-1.078,0.271-2.151,0.421-3.225c0-0.001,0.001-0.001,0.001-0.002
				c0.423-0.923,1.043-1.745,1.875-2.337c0.806-0.574,2.111-0.934,2.289,0.394c0.147,1.09-0.043,2.305-0.115,3.399
				c-0.08,1.215-0.183,2.429-0.29,3.642c-0.425,4.826-0.903,9.686-0.264,14.516c0.083,0.629,1.084,0.633,1-0.005
				c-0.58-4.383-0.242-8.797,0.146-13.181c0.197-2.223,0.403-4.446,0.503-6.676C169.836,109.809,169.914,107.598,167.905,107.603z"
				/>
		</g>
		<g>
			<path style="fill:#FCBC70;" d="M318.03,315.39c-0.16,5.62-0.55,11.23-0.95,16.84c-0.94,13.31-1.89,26.63-3.2,39.91
				c0.09,5.74-0.72,11.47-1.6,17.13c-0.8,5.06-1.75,10.14-3.51,14.96c-0.86,2.36-1.91,4.65-3.22,6.79
				c-1.23,2.01-2.63,4.23-4.94,5.08c-2.22,0.81-4.72,0.38-6.96-0.13c-1.01-0.23-2.17-0.51-2.18-1.78c0-0.66,0.28-1.32,0.47-1.94
				c0.22-0.71,0.44-1.42,0.66-2.13c1.55-5.03,3.1-10.07,4.65-15.1c-2.36,2.86-4.25,6.13-7.23,8.43c-0.25,0.2-0.6,0.19-0.78-0.11
				c-0.56-0.93-0.2-2.03,0.04-3.01c0.3-1.22,0.65-2.43,1.04-3.63c2.5-7.74,6.51-14.86,9.67-22.32c-0.16-0.03-0.01-0.92,0.23-1.33
				c0.79-20.96-0.25-42.01-3.09-62.81c-0.88-6.36-1.92-12.74-1.81-19.16c7.28,0.08,14.58-0.48,21.77-1.67l0.04,0.24
				C317.98,298.2,318.27,306.81,318.03,315.39z"/>
			<path style="fill:#FF9F48;" d="M306.275,397.548c-1.386,3.484-2.783,6.978-4.601,10.264c-0.892,1.611-1.881,3.176-3.013,4.629
				c-1.037,1.33-2.445,2.961-4.297,2.743c0.318-0.295,0.603-0.604,0.83-0.872c1.951-2.311,3.496-4.96,4.806-7.676
				c1.521-3.153,2.736-6.442,3.943-9.724c0.222-0.603-0.747-0.852-0.968-0.252c-1.919,5.217-3.876,10.513-7.085,15.1
				c-0.736,1.052-1.531,2.243-2.59,3.001c-0.234,0.168-0.535,0.384-0.825,0.44c-0.516,0.099-0.527-0.092-0.424-0.514
				c0.186-0.766,0.49-1.522,0.734-2.271c0.973-2.996,1.946-5.992,2.919-8.988c1.101-3.39,2.202-6.78,3.303-10.171
				c0.075-0.232-0.018-0.412-0.173-0.513c0.061-0.104,0.123-0.207,0.184-0.311c0.325-0.556-0.541-1.056-0.866-0.5
				c-1.371,2.346-2.749,4.71-4.442,6.843c-0.85,1.071-1.778,2.084-2.806,2.987c-0.257,0.226-0.52,0.446-0.789,0.657
				c-0.166,0.13-0.462,0.468-0.681,0.475c-0.323,0.01-0.186-0.234-0.146-0.475c0.025-0.154,0.055-0.307,0.086-0.46
				c0.086-0.42,0.191-0.836,0.307-1.249c0.843-2.983,2.071-5.89,3.198-8.774c1.173-3,2.396-5.979,3.671-8.937
				c1.404-3.258,2.87-6.489,4.393-9.693c0.274-0.577-0.589-1.082-0.866-0.5c-3.013,6.339-5.797,12.787-8.341,19.328
				c-0.628,1.616-1.242,3.237-1.841,4.863c-0.595,1.616-1.215,3.241-1.534,4.939c-0.106,0.566-0.275,1.306,0.212,1.754
				c0.44,0.405,1.045,0.261,1.507-0.014c1.228-0.73,2.321-1.881,3.27-2.934c1.503-1.667,2.76-3.525,3.939-5.433
				c-1.952,6.011-3.904,12.022-5.856,18.034c-0.277,0.852-0.993,2.662,0.448,2.922c0.558,0.101,1.119-0.103,1.638-0.427
				c0.045,0.135,0.146,0.25,0.333,0.29c1.958,0.414,3.627-0.745,4.851-2.164c1.298-1.505,2.415-3.179,3.41-4.897
				c2.074-3.579,3.607-7.436,5.132-11.271C307.48,397.204,306.51,396.956,306.275,397.548z"/>
			<path style="fill:#FF9F48;" d="M313.202,373.695c-0.75,6.574-1.5,13.151-2.566,19.683c-0.506,3.1-1.061,6.199-1.899,9.229
				c-0.806,2.913-1.842,5.875-3.524,8.409c-1.76,2.651-4.595,4.782-7.92,4.475c-0.64-0.059-0.632,0.941,0.005,1
				c6.461,0.596,9.954-6.138,11.69-11.287c1.072-3.181,1.744-6.48,2.315-9.783c0.583-3.374,1.073-6.765,1.516-10.16
				c0.502-3.852,0.943-7.712,1.383-11.571C314.275,373.052,313.274,373.062,313.202,373.695z"/>
			<path style="fill:#FF9F48;" d="M300.845,341.487c-0.542-10.542-1.533-21.055-2.684-31.546c-0.65-5.927-1.352-11.847-2.054-17.768
				c-0.075-0.632-1.076-0.635-1,0.005c1.244,10.486,2.486,20.973,3.443,31.49c0.955,10.499,1.627,21.03,1.723,31.574
				c0.054,5.949-0.078,11.9-0.438,17.839c-0.039,0.642,0.961,0.636,1-0.005C301.473,362.557,301.386,352.008,300.845,341.487z"/>
		</g>
		<g>
			<path style="fill:#FF9F48;" d="M249.123,175.762c-0.313-0.085-0.551,0.118-0.661,0.388c-0.337,0.823-0.781,1.607-1.303,2.326
				c-0.25,0.343-0.519,0.697-0.828,0.99c-0.348,0.329-0.757,0.285-1.207,0.249c-1.912-0.155-3.734-0.902-5.498-1.606
				c-0.645-0.258-0.915,0.793-0.273,1.049c1.037,0.414,2.076,0.828,3.149,1.14c1.026,0.299,2.186,0.586,3.264,0.521
				c1.025-0.061,1.608-0.841,2.183-1.602c0.65-0.861,1.154-1.798,1.562-2.794C249.623,176.15,249.378,175.831,249.123,175.762z"/>
			<path style="fill:#FF9F48;" d="M244.326,172.775c-0.817-4.045-2.066-7.982-3.708-11.767c-0.278-0.641-1.217-0.097-0.942,0.537
				c1.604,3.698,2.804,7.56,3.602,11.51C243.417,173.741,244.464,173.457,244.326,172.775z"/>
			<path style="fill:#38364C;" d="M233.954,163.141c-0.164-0.521-0.758-0.972-1.328-0.766c-2.049,0.738-4.027,1.659-5.896,2.778
				c-0.487,0.291-0.721,0.976-0.405,1.479c0.307,0.489,0.959,0.716,1.479,0.405c0.879-0.526,1.782-1.012,2.707-1.452
				c0.455-0.216,0.915-0.419,1.379-0.616c0.05-0.021,0.071-0.029,0.082-0.034c0.048-0.019,0.096-0.039,0.143-0.058
				c0.097-0.039,0.194-0.077,0.291-0.115c0.259-0.1,0.519-0.197,0.781-0.291C233.72,164.276,234.14,163.731,233.954,163.141z"/>
			<g>
				<path style="fill:#38364C;" d="M245.915,156.284C245.915,156.284,245.914,156.284,245.915,156.284
					C245.875,156.3,245.864,156.305,245.915,156.284z"/>
				<path style="fill:#38364C;" d="M252.611,157.022c-0.187-0.594-0.732-0.881-1.328-0.766c-2.257,0.433-4.44,1.116-6.563,1.994
					c-0.526,0.218-0.689,1.026-0.405,1.479c0.345,0.549,0.917,0.637,1.478,0.405c0.019-0.008,0.031-0.013,0.071-0.029
					c0.073-0.029,0.146-0.058,0.219-0.087c0.109-0.043,0.219-0.086,0.329-0.128c0.257-0.098,0.515-0.193,0.774-0.284
					c0.5-0.176,1.004-0.34,1.512-0.491c1.035-0.308,2.085-0.561,3.145-0.765C252.403,158.242,252.778,157.553,252.611,157.022z"/>
			</g>
			<path style="fill:#38364C;" d="M248.974,163.683c-2.092,0-2.081,3.253,0.018,3.253
				C251.084,166.936,251.073,163.683,248.974,163.683z"/>
			<path style="fill:#38364C;" d="M233.382,168.31c-2.092,0-2.081,3.253,0.017,3.253C235.492,171.563,235.48,168.31,233.382,168.31z
				"/>
			<path style="fill:#FFFFFF;" d="M240.561,185.255l11.514-2.879c0,0,0.748,6.845-4.676,7.824
				C241.973,191.179,240.561,185.255,240.561,185.255z"/>
		</g>
		<g>
			<path style="fill:#D34F84;" d="M318.236,282.798c-0.954,0.379-2.081,0.444-3.133,0.466c-6.916,0.152-13.832,0.304-20.748,0.455
				c-0.238,2.45-0.477,4.889-0.705,7.339c-0.488,4.986-0.976,9.984-1.453,14.97c-0.379,3.881-0.748,7.837,0.054,11.664
				c0.585,2.721,1.745,5.312,2.146,8.065c0.716,5.019-1.181,10.016-1.452,15.078c-0.542,10.19,5.496,20.032,4.195,30.146
				c-0.087,0.759-0.26,1.561-0.813,2.081c-0.26,0.239-0.585,0.39-0.921,0.488c-0.445,0.119-0.921,0.141-1.377,0.152
				c-4.303,0.098-8.574-0.715-12.867-0.748c-5.81-0.043-11.534,1.323-17.322,1.81c-6.255,0.52-12.553,0-18.818-0.52
				c-15.729-1.301-31.457-2.602-47.197-3.902c-1.225-0.098-2.536-0.217-3.62-0.78c-0.293-0.13-0.575-0.303-0.835-0.52
				c-1.929-1.593-1.886-4.52-1.626-7.003c1.724-17.008,5.127-34.037,3.501-51.045c-0.585-6.179-1.832-12.303-2.049-18.515
				c-0.401-12.195,3.219-24.477,1.442-36.487c-2.298-1.182-4.607-2.374-6.894-3.566c-1.041-0.531-2.125-1.084-3.285-1.127
				c-1.767-0.054-3.967,0.867-4.997-0.553c-0.293-0.401-0.39-0.911-0.455-1.398c-0.119-0.889-0.152-1.789-0.108-2.677
				c0.076-2.114,0.51-4.228,0.976-6.309c1.745-7.696,3.967-15.436,3.653-23.317c-0.065-1.409-0.195-2.829,0.108-4.206
				c0.033-0.163,0.076-0.325,0.13-0.477c0.379-1.203,1.16-2.298,2.331-2.721c2.125-0.759,4.303,0.921,6.536,1.247
				c2.406,0.358,4.748-0.9,7.176-1.062c3.176-0.217,6.396,1.442,9.463,0.607c1.561-0.423,2.905-1.452,4.455-1.897
				c2.515-0.737,5.572,0.043,7.588-1.648c0.759-0.629,1.257-1.55,2.07-2.125c1.344-0.943,3.274-0.672,4.618,0.271
				c0.9,0.64,1.583,1.518,2.125,2.493c-0.011,0.163-0.022,0.325-0.033,0.488c-0.043,0.683-0.087,1.387,0.098,2.06
				c0.184,0.661,0.575,1.236,0.965,1.789c6.179,8.867,12.357,17.723,18.525,26.579c0.444,0.64,1.149,1.355,1.854,1.041
				c0.238-0.098,0.412-0.293,0.574-0.488c6.276-7.371,12-15.219,17.105-23.447c0.173-0.282,0.347-0.575,0.39-0.9
				c0.043-0.401-0.13-0.791-0.293-1.171c-0.488-1.116-0.965-2.233-1.431-3.36c4.065,0.228,8.661-2.342,11.761,0.238
				c1.225,1.008,1.854,2.612,3.122,3.555c2.103,1.572,5.051,0.781,7.675,0.77c4.629-0.022,8.943,2.667,11.902,6.211
				c2.97,3.545,4.78,7.891,6.417,12.217c5.355,14.189,9.203,28.953,11.458,43.956c0.26,1.691,0.423,3.631-0.737,4.889
				C319.135,282.343,318.702,282.603,318.236,282.798z"/>
			<path style="fill:#4955C1;" d="M295.32,291.08c-0.564,0-1.117-0.011-1.669-0.022c0.228-2.45,0.466-4.889,0.705-7.339
				c6.916-0.152,13.832-0.303,20.748-0.455c1.051-0.022,2.179-0.087,3.133-0.466c0.141,2.135,0.152,4.271,0.033,6.417
				c-0.39,0.065-0.791,0.13-1.182,0.195C309.9,290.603,302.604,291.155,295.32,291.08z"/>
			<path style="fill:#4955C1;" d="M177.067,214.051c0.141-0.64,0.303-1.29,0.455-1.929c0.098-0.401,0.228-0.846,0.574-1.062
				c0.336-0.206,0.77-0.13,1.16-0.043c1.528,0.347,3.035,0.791,4.509,1.344c-0.054,0.152-0.097,0.314-0.13,0.477
				c-0.303,1.377-0.173,2.797-0.108,4.206c0.314,7.881-1.908,15.62-3.653,23.317c-0.466,2.081-0.9,4.195-0.976,6.309
				c-1.355-0.26-2.721-0.52-4.076-0.781c-0.64-0.119-1.301-0.249-1.81-0.672c-0.965-0.802-0.911-2.276-0.77-3.523
				c0.043-0.369,0.087-0.726,0.141-1.095C173.458,231.677,175.019,222.799,177.067,214.051z"/>
			<path style="fill:#B72969;" d="M210.008,217.829c-0.12-0.267-0.505-0.337-0.739-0.202c-0.993,0.57-1.545,1.538-2.007,2.551
				c-0.531,1.165-1.018,2.353-1.477,3.548c-0.943,2.454-1.757,4.954-2.531,7.466c-1.555,5.049-2.947,10.162-4.921,15.07
				c-0.928,2.308-2.013,4.551-3.27,6.697c0.023-0.723,0.2-1.478,0.288-2.122c0.152-1.121,0.319-2.24,0.495-3.357
				c0.344-2.196,0.722-4.386,1.089-6.578c0.739-4.412,1.44-8.839,1.746-13.306c0.151-2.2,0.204-4.407,0.117-6.611
				c-0.033-0.814-0.005-1.72-0.46-2.436c-0.356-0.559-1.035-0.829-1.648-0.51c-0.708,0.369-1.128,1.286-1.391,1.993
				c-0.333,0.895-0.458,1.849-0.595,2.789c-0.328,2.26-0.656,4.519-0.984,6.779c-0.752,5.184-1.505,10.368-2.257,15.552
				c-0.099,0.682,0.949,0.965,1.049,0.273c0.624-4.298,1.247-8.596,1.871-12.894c0.315-2.171,0.63-4.342,0.945-6.513
				c0.142-0.975,0.283-1.95,0.424-2.924c0.136-0.936,0.252-1.901,0.595-2.789c0.129-0.335,0.299-0.714,0.533-0.988
				c0.167-0.196,0.278-0.406,0.515-0.232c0.118,0.087,0.173,0.364,0.206,0.497c0.253,1,0.146,2.199,0.153,3.226
				c0.013,2.075-0.089,4.149-0.269,6.216c-0.365,4.196-1.053,8.355-1.752,12.507c-0.391,2.32-0.786,4.639-1.135,6.966
				c-0.168,1.118-0.324,2.237-0.466,3.359c-0.127,1.009-0.219,1.941,0.178,2.901c0.168,0.406,0.745,0.311,0.94,0.003
				c5.514-8.712,7.395-18.993,10.784-28.588c0.497-1.408,1.027-2.806,1.61-4.182c0.417-0.983,0.823-2.216,1.622-2.997
				c0.252,0.953,0.19,1.968,0.026,2.938c-0.199,1.179-0.475,2.35-0.758,3.511c-0.587,2.406-1.291,4.783-2.083,7.129
				c-1.588,4.704-3.525,9.28-5.58,13.796c-1.153,2.533-2.343,5.048-3.534,7.564c-0.296,0.626,0.64,1.173,0.939,0.542
				c4.406-9.306,8.858-18.71,11.307-28.757C210.194,223.215,211.12,220.309,210.008,217.829z"/>
			<path style="fill:#B72969;" d="M232.647,228.277c-0.169-0.656-0.357-1.307-0.562-1.952c-0.791-2.48-1.839-4.883-3.123-7.147
				c-1.434-2.529-3.167-4.883-5.141-7.017c-0.475-0.513-1.245,0.25-0.772,0.761c3.079,3.329,5.544,7.225,7.197,11.45
				c0.411,1.051,0.774,2.121,1.087,3.205c0.146,0.506,0.281,1.015,0.404,1.527c0.009,0.036,0.21,0.709,0.154,0.742
				c-0.033,0.019-0.518-0.632-0.533-0.651c-1.573-1.99-3.089-4.024-4.549-6.098c-1.657-2.355-3.237-4.764-4.745-7.217
				c-0.365-0.594-1.308-0.058-0.942,0.537c1.553,2.525,3.182,5.003,4.892,7.424c0.83,1.176,1.679,2.339,2.546,3.489
				c0.411,0.545,0.824,1.087,1.242,1.626c0.437,0.563,0.851,1.221,1.373,1.707c0.79,0.734,1.821,0.238,1.799-0.823
				C232.964,229.319,232.776,228.777,232.647,228.277z"/>
			<path style="fill:#B72969;" d="M282.46,222.397c-3.439,3.399-6.986,6.687-10.641,9.854c-3.668,3.179-7.414,6.336-11.355,9.173
				c-0.909,0.655-1.844,1.276-2.824,1.82c-0.288,0.16-1.211,0.815-1.526,0.656c-0.227-0.115-0.044-0.373,0.083-0.591
				c0.137-0.235,0.308-0.453,0.465-0.674c1.202-1.69,2.498-3.31,3.829-4.9c2.638-3.15,5.417-6.183,7.952-9.419
				c2.798-3.571,5.27-7.39,6.812-11.68c0.236-0.655-0.814-0.926-1.049-0.273c-3.003,8.355-9.572,14.644-15.099,21.349
				c-0.695,0.843-1.376,1.697-2.041,2.564c-0.63,0.822-1.355,1.66-1.853,2.571c-0.38,0.695-0.519,1.732,0.365,2.107
				c0.877,0.372,1.976-0.417,2.702-0.826c2.123-1.195,4.042-2.726,5.955-4.226c2.036-1.596,4.044-3.228,6.023-4.895
				c4.476-3.772,8.799-7.724,12.962-11.838C283.718,222.678,282.956,221.906,282.46,222.397z"/>
			<path style="fill:#B72969;" d="M292.541,245.038c-0.465-3.483-0.879-6.973-1.161-10.476c-0.056-0.691-1.14-0.692-1.084,0.006
				c0.987,12.252,3.641,24.327,4.186,36.62c0.155,3.492,0.129,6.99-0.146,10.476c-0.055,0.695,1.03,0.687,1.084-0.006
				C296.388,269.366,294.162,257.172,292.541,245.038z"/>
			<path style="fill:#B72969;" d="M262.314,343.581c1.626-0.986,3.267-1.946,4.91-2.903c3.218-1.873,6.447-3.732,9.583-5.741
				c3.558-2.279,6.994-4.762,10.114-7.618c0.516-0.472-0.247-1.242-0.761-0.772c-5.994,5.487-13.109,9.479-20.089,13.549
				c-1.714,1-3.469,1.966-5.125,3.059c-1.363,0.9-2.248,2.272-1.517,3.9c0.763,1.698,2.589,2.286,4.292,2.554
				c2.163,0.341,4.349,0.579,6.53,0.77c5.093,0.447,10.212,0.532,15.318,0.269c0.694-0.036,0.694-1.12-0.006-1.084
				c-4.262,0.219-8.533,0.198-12.792-0.076c-2.129-0.137-4.254-0.336-6.371-0.599c-1.684-0.209-3.964-0.214-5.315-1.385
				c-0.628-0.544-1.083-1.471-0.72-2.286C260.71,344.442,261.629,343.997,262.314,343.581z"/>
			<path style="fill:#B72969;" d="M252.798,361.982c-13.274-0.193-26.715-0.396-39.693-3.499c-3.61-0.863-7.162-1.955-10.619-3.308
				c-0.647-0.253-0.917,0.797-0.273,1.049c12.437,4.867,25.873,6.155,39.116,6.598c3.824,0.128,7.65,0.187,11.475,0.243
				C253.501,363.077,253.497,361.992,252.798,361.982z"/>
		</g>
	</g>
	<g>
		<g>
			<path style="fill:#38364C;" d="M136.082,212.122c0,4.097-0.098,8.217-0.325,12.325c-0.282,6.493-0.965,12.975-2.049,19.393
				c-0.152-0.011-0.293-0.033-0.445-0.043c-0.011,0.043-0.022,0.087-0.033,0.141c-0.856,3.295-2.07,6.482-3.49,9.572
				c-2.851,6.222-6.471,12.086-9.962,17.972c-3.469,5.854-7.013,11.664-10.851,17.268c-3.523,5.127-7.273,10.124-11.447,14.753
				c-0.303,0.347-0.629,0.694-0.943,1.041c-4.293,4.618-9.214,8.737-15.23,10.872c-5.756,2.049-12.076,2.287-18.049,1.052
				c-5.81-1.192-11.729-3.805-15.989-8.022c-1.062-1.051-1.951-2.179-2.71-3.36c-2.385-3.057-3.902-6.807-4.217-10.688
				c-0.444-5.669,1.561-11.263,4.076-16.379c0.986-2.016,2.06-4,3.111-5.984c0.13-0.282,0.249-0.564,0.379-0.846
				c1.409-3.285,2.797-6.58,4.163-9.886c4.076-9.919,7.924-19.935,11.523-30.027c2.407-6.753,4.715-13.55,6.905-20.379
				c1.268-3.967,2.461-7.967,3.675-11.946c1.366-5.843,3.111-11.523,6.027-16.758c0.379-0.683,0.791-1.355,1.214-2.016
				c0.77-1.323,1.604-2.612,2.547-3.827c3.631-4.715,8.585-8.032,14.244-9.799c5.81-1.81,12.357-2.211,18.308-0.878
				c2.916,0.65,5.68,1.854,8.033,3.696c2.06,1.615,3.74,3.653,5.073,5.886c2.786,4.629,4.162,10.016,4.975,15.317
				C135.702,197.694,136.082,204.913,136.082,212.122z"/>
			<path style="fill:#525172;" d="M120.491,170.962c-2.096,3.064-4.607,5.831-7.449,8.22c-1.431,1.203-2.945,2.304-4.528,3.298
				c-0.749,0.47-1.513,0.915-2.291,1.336c-0.788,0.426-1.977,1.302-2.899,1.077c-0.676-0.165-0.953,0.883-0.273,1.049
				c0.994,0.243,1.864-0.235,2.73-0.672c0.92-0.465,1.823-0.966,2.706-1.5c1.679-1.016,3.284-2.154,4.806-3.392
				c3.127-2.546,5.861-5.546,8.137-8.873C121.824,170.928,120.883,170.389,120.491,170.962z"/>
			<path style="fill:#525172;" d="M97.676,186.061c-1.787,0.394-3.588,0.727-5.399,0.992c-0.913,0.134-1.828,0.249-2.746,0.347
				c-0.864,0.092-1.754,0.239-2.599-0.031c-0.664-0.212-0.937,0.837-0.273,1.049c0.873,0.279,1.769,0.182,2.664,0.088
				c0.938-0.098,1.874-0.214,2.809-0.346c1.955-0.275,3.897-0.629,5.825-1.053C98.64,186.958,98.357,185.911,97.676,186.061z"/>
			<path style="fill:#525172;" d="M113.293,165.212c-5.357-0.142-10.863-0.275-16.041,1.325c-4.397,1.359-8.282,4.001-11.453,7.306
				c-7.156,7.46-10.293,17.535-13.199,27.206c-1.919,6.387-3.837,12.774-5.756,19.162c-0.201,0.668,0.849,0.942,1.049,0.273
				c1.661-5.531,3.323-11.062,4.984-16.592c1.509-5.024,2.954-10.085,4.911-14.959c3.443-8.575,9.078-17.171,17.999-20.735
				c5.547-2.216,11.645-2.058,17.511-1.903C113.996,166.315,113.991,165.231,113.293,165.212z"/>
			<path style="fill:#525172;" d="M65.368,315.678c-4.251-0.216-8.415-2.013-12.107-4.03c-3.535-1.931-6.812-4.475-9.082-7.843
				c-2.371-3.517-3.266-7.618-2.973-11.823c0.31-4.433,1.848-8.675,3.6-12.72c2.058-4.753,4.264-9.447,6.405-14.163
				c0.286-0.629-0.65-1.178-0.939-0.542c-2.001,4.408-4.036,8.802-5.996,13.229c-1.856,4.193-3.534,8.513-4.054,13.101
				c-0.486,4.294,0.16,8.664,2.364,12.423c2.097,3.576,5.272,6.385,8.795,8.51c2.087,1.259,4.306,2.303,6.572,3.194
				c2.381,0.937,4.854,1.618,7.419,1.748C66.071,316.797,66.064,315.713,65.368,315.678z"/>
			<path style="fill:#525172;" d="M50.312,273.352c-4.487,7.098-6.997,15.348-7.244,23.74c-0.021,0.697,1.064,0.692,1.084-0.006
				c0.242-8.207,2.712-16.253,7.099-23.192C51.623,273.303,50.684,272.762,50.312,273.352z"/>
			<path style="fill:#525172;" d="M51.717,278.582c-1.858,3.768-3.132,7.794-3.756,11.95c-0.102,0.682,0.945,0.964,1.049,0.273
				c0.609-4.059,1.83-7.999,3.645-11.681C52.963,278.501,52.026,277.955,51.717,278.582z"/>
			<path style="fill:#525172;" d="M62.427,301.45c-0.304-0.079-0.562,0.111-0.661,0.388c-0.789,2.211-1.906,4.293-3.288,6.19
				c-0.173,0.237-0.036,0.605,0.198,0.74c0.276,0.159,0.567,0.039,0.74-0.198c1.441-1.978,2.576-4.155,3.399-6.459
				C62.914,301.835,62.693,301.519,62.427,301.45z"/>
			<path style="fill:#525172;" d="M136.516,207.7c-0.115-0.689-1.161-0.403-1.047,0.281c0.74,4.439,0.286,9.034-0.03,13.494
				c-0.32,4.536-0.752,9.064-1.295,13.579c-0.314,2.609-0.667,5.214-1.055,7.813c-0.102,0.682,0.946,0.964,1.049,0.273
				c1.369-9.188,2.376-18.476,2.741-27.762C136.982,212.809,136.94,210.241,136.516,207.7z"/>
		</g>
		<g>
			<path style="fill:#4955C1;" d="M145.566,353.236c6.775,23.631,10.623,48.097,11.436,72.66v1.756H61.535
				c-6.818-30.861-0.423-64.432,17.236-90.633h0.011c2.786-0.542,5.691-1.474,8.401-1.962c3.935-0.705,7.978-0.336,11.956,0.022
				c12.596,1.16,25.203,2.32,37.799,3.48c1.29,0.119,2.688,0.184,4.043,0.098C142.64,343.469,144.168,348.336,145.566,353.236z"/>
			<path style="fill:#3444A5;" d="M77.615,338.388c-3.111,5.059-6.225,10.126-8.923,15.422c-2.7,5.301-4.894,10.814-6.384,16.578
				c-3.058,11.832-4.27,24.296-3.719,36.496c0.309,6.851,1.222,13.675,2.767,20.357c0.157,0.681,1.204,0.399,1.047-0.281
				c-2.733-11.819-3.425-24.048-2.397-36.124c0.516-6.061,1.441-12.107,2.824-18.032c1.359-5.82,3.349-11.412,5.968-16.784
				c2.877-5.902,6.319-11.503,9.755-17.09C78.92,338.336,77.981,337.794,77.615,338.388z"/>
			<path style="fill:#3444A5;" d="M84.502,339.847c-5.259,7.706-9.828,15.868-13.65,24.379c-0.283,0.63,0.653,1.179,0.939,0.542
				c3.821-8.511,8.391-16.673,13.65-24.379C85.834,339.812,84.893,339.273,84.502,339.847z"/>
			<path style="fill:#3444A5;" d="M70.091,370.196c0.167-0.676-0.881-0.953-1.049-0.273c-3.597,14.542-4.871,29.649-3.739,44.587
				c0.315,4.153,0.818,8.291,1.496,12.401c0.114,0.689,1.16,0.403,1.047-0.281c-2.406-14.596-2.482-29.579-0.216-44.199
				C68.268,378.319,69.092,374.236,70.091,370.196z"/>
			<path style="fill:#3444A5;" d="M143.846,366.833c-6.594,6.873-14.336,12.599-22.844,16.884c-2.419,1.218-4.896,2.316-7.422,3.293
				c-0.645,0.249-0.37,1.299,0.281,1.047c9.016-3.485,17.407-8.485,24.748-14.775c2.092-1.792,4.091-3.689,5.998-5.676
				C145.09,367.102,144.329,366.329,143.846,366.833z"/>
			<path style="fill:#3444A5;" d="M116.52,395.792c-0.386-2.566-0.966-5.104-2.148-7.431c-0.317-0.624-1.257-0.083-0.942,0.537
				c1.045,2.058,1.581,4.307,1.949,6.573c0.387,2.389,0.653,4.802,0.899,7.209c0.506,4.967,0.803,9.955,0.89,14.946
				c0.049,2.808,0.029,5.617-0.053,8.424c-0.021,0.698,1.064,0.692,1.084-0.006C118.494,415.959,118.022,405.776,116.52,395.792z"/>
			<path style="fill:#3444A5;" d="M136.608,381.658c-6.735,3.079-14.012,4.896-21.403,5.351c-0.693,0.043-0.693,1.127,0.006,1.084
				c7.586-0.468,15.023-2.334,21.934-5.494C137.781,382.309,137.238,381.37,136.608,381.658z"/>
		</g>
		<g>
			<path style="fill:#FCBC70;" d="M120.971,242.452c0.098,0.455,0.206,0.921,0.314,1.377c-1.94,4.26-4.477,8.661-8.845,10.255
				c-3.219,1.182-6.883,0.542-9.973-0.943c-2.862-1.366-5.387-3.447-7.284-5.994c-1.962-2.634-3.23-5.702-4.271-8.824l0.206-0.065
				c-0.022-0.434-0.087-0.856-0.184-1.279c0.835-4.076,1.659-8.152,2.493-12.227c-3.686-1.377-6.417-4.78-7.815-8.499
				c-1.518-3.978-1.745-8.314-1.962-12.563c-0.206-4.119-0.412-8.228-0.618-12.336c12.011,0.921,24.314-2.894,33.68-10.461
				c1.875-1.507,3.696-3.252,4.542-5.485c4.629,10.157,4.856,21.723,4.596,32.888c-0.054,2.732-0.163,5.539-1.247,8.043
				c-1.42,3.328-4.379,5.702-7.306,7.87C118.38,230.322,119.605,236.403,120.971,242.452z"/>
			<path style="fill:#FF9F48;" d="M103.094,225.855c-4.962,0.048-10.664-0.731-14.12-4.684c-2.025-2.315-3.029-5.509-3.817-8.427
				c-0.83-3.069-1.306-6.222-1.554-9.389c-0.28-3.566-0.279-7.147-0.18-10.721c0.019-0.698-1.065-0.692-1.084,0.006
				c-0.184,6.658-0.029,13.422,1.645,19.906c0.775,3.001,1.784,6.201,3.671,8.704c1.592,2.113,3.847,3.542,6.32,4.415
				c2.911,1.028,6.057,1.302,9.125,1.272C103.797,226.933,103.794,225.848,103.094,225.855z"/>
			<path style="fill:#FF9F48;" d="M126.939,202.527c-0.096-4.167-0.566-8.319-1.236-12.431c-0.751-4.608-1.762-9.167-2.818-13.713
				c-0.158-0.681-1.205-0.399-1.047,0.281c1.797,7.74,3.481,15.555,3.923,23.509c0.212,3.805,0.211,7.707-0.387,11.48
				c-0.535,3.379-1.717,6.633-4.251,9.029c-2.66,2.514-6.177,3.897-9.534,5.205c-0.644,0.251-0.37,1.3,0.281,1.047
				c1.764-0.688,3.538-1.395,5.231-2.251c1.167,6.227,2.334,12.453,3.5,18.68c0.129,0.687,1.175,0.402,1.047-0.281
				c-1.179-6.292-2.358-12.584-3.537-18.876c-0.004-0.02-0.015-0.032-0.021-0.05c0.934-0.521,1.839-1.094,2.689-1.756
				c2.74-2.137,4.425-5.102,5.243-8.452C126.925,210.247,127.026,206.316,126.939,202.527z"/>
		</g>
		<g>
			<path style="fill:#FCBC70;" d="M73.882,118.311c-0.512-0.482-1.259-0.394-1.828-0.079c-0.771,0.427-1.474,1.087-2.156,1.641
				c-0.821,0.666-1.623,1.355-2.405,2.066c-0.917,0.833-1.795,1.707-2.655,2.598c-0.426,0.25-0.849,0.504-1.268,0.763
				c1.157-4.681,2.656-9.266,4.507-13.713c0.011-0.199,0.022-0.395,0.032-0.588c0.089-1.76,0.338-3.512,0.584-5.256
				c0.128-0.904,0.251-1.806,0.36-2.71c0.173-0.958,0.333-1.919,0.477-2.882c0.139-0.926,0.264-1.853,0.378-2.782
				c0.094-0.767,0.171-1.469-0.33-2.116c-0.153-0.198-0.551-0.197-0.707-0.005c-0.661,0.814-1.223,1.69-1.733,2.6
				c-0.099,0.124-0.191,0.252-0.285,0.379c-0.158,0.091-0.319,0.175-0.473,0.271c0.13-1.58,1.33-3.22,0.21-4.7
				c-0.46-0.62-1.28-0.85-1.96-0.66c-0.04-0.72-0.24-1.41-0.64-2.04c-0.17-0.27-0.54-0.34-0.78-0.11
				c-6.58,6.34-10.36,14.83-13.32,23.33c-0.6,1.72-1.16,3.45-1.72,5.18c-0.39-2.98-0.88-5.95-1.48-8.9
				c-0.08-0.42-0.72-0.49-0.91-0.12c-0.96,1.83-1.28,3.85-1.56,5.88c-0.33,2.34-0.65,4.69-0.97,7.04
				c-0.64,4.66-1.28,9.32-1.92,13.97c-0.32,2.27-0.63,4.54-0.94,6.81c-0.1,0.01-0.19,0.01-0.29,0.03
				c-4.25,16.24-8,32.61-11.19,49.08c-0.53,2.72-1.05,5.5-0.71,8.25c0.28,2.21,1.12,4.33,1.94,6.41
				c5.36,13.44,10.69,26.89,16.04,40.33c0.16-0.21,0.33-0.43,0.5-0.64c6.15-7.52,11.03-16.1,14.36-25.24
				c0.07-0.21,0.16-0.42,0.25-0.64c0-0.01,0-0.01,0-0.01c-4-9.68-8.36-19.21-13.06-28.58l0.38-0.18c1.97-13.29,3.81-26.6,5.52-39.92
				c0.01,0,0.01-0.01,0.02-0.02c0.035-0.2,0.078-0.393,0.115-0.591c0.063-0.038,0.12-0.088,0.161-0.164
				c3.446-6.411,7.748-12.291,11.836-18.296c2.038-2.994,4.048-6.024,5.825-9.183c0.07-0.125,0.136-0.254,0.205-0.38
				c0.57-0.682,1.819-2.914,1.351-2.906c0.177-0.488,0.336-0.981,0.451-1.488C74.227,119.455,74.377,118.777,73.882,118.311z
				 M60.995,139.907c1.537-2.36,3.156-4.674,4.777-6.982C64.191,135.26,62.588,137.58,60.995,139.907z"/>
			<path style="fill:#FF9F48;" d="M46.546,248.008c-3.036-6.292-5.472-12.843-7.851-19.405c-2.325-6.413-4.71-12.778-7.341-19.072
				c-1.49-3.563-2.846-7.316-2.417-11.24c0.076-0.692-1.009-0.682-1.084,0.006c-0.377,3.453,0.591,6.826,1.842,10.01
				c1.264,3.217,2.671,6.374,3.912,9.601c2.524,6.565,4.771,13.233,7.327,19.786c1.431,3.67,2.959,7.303,4.672,10.851
				C45.908,249.174,46.847,248.633,46.546,248.008z"/>
			<path style="fill:#FF9F48;" d="M65.677,101.79c0.304-1.049,0.607-2.097,0.91-3.146c0.025,0.049,0.066,0.089,0.106,0.129
				c0.013-0.05,0.027-0.099,0.039-0.149c0.048-0.2,0.073-0.404,0.103-0.608c-0.026,0.021-0.054,0.039-0.08,0.06
				c0.293-0.967,0.661-1.963,0.764-2.962c0.09-0.876-0.163-1.789-1.006-2.195c-0.696-0.335-1.519-0.204-1.937,0.476
				c-0.027,0.044-0.035,0.087-0.048,0.131c0.191-0.863,0.251-1.733,0.056-2.586c-0.036-0.159-0.19-0.329-0.357-0.355
				c-1.079-0.166-1.771,0.581-2.414,1.346c-0.753,0.896-1.482,1.814-2.186,2.75c-1.44,1.912-2.771,3.905-3.989,5.966
				c-2.403,4.068-4.359,8.405-5.827,12.896c-0.658,2.014-1.21,4.061-1.666,6.13c-0.152-1.508-0.329-3.014-0.559-4.513
				c-0.185-1.202-0.358-2.424-0.634-3.609c-0.168-0.721-0.539-1.431-1.364-1.455c-0.167-0.005-0.355,0.099-0.43,0.25
				c-1.727,3.433-2.01,7.285-2.275,11.055c-0.301,4.291-0.728,8.571-1.307,12.833c-0.329,2.425-0.706,4.843-1.124,7.255
				c-0.109,0.629,0.858,0.888,0.968,0.252c0.719-4.142,1.309-8.305,1.765-12.484c0.226-2.068,0.418-4.139,0.578-6.213
				c0.151-1.962,0.244-3.932,0.495-5.884c0.26-2.017,0.719-4.012,1.57-5.863c0.311,0.512,0.423,1.91,0.473,2.194
				c0.17,0.962,0.324,1.927,0.461,2.895c0.28,1.974,0.483,3.957,0.624,5.946c0.045,0.638,1.046,0.639,1-0.005
				c-0.007-0.099-0.02-0.198-0.027-0.298c0.182-0.014,0.347-0.127,0.392-0.365c1.678-8.749,5.183-17.105,10.257-24.429
				c0.736-1.063,1.503-2.104,2.305-3.118c0.371-0.469,0.749-0.934,1.133-1.392c0.284-0.339,0.717-0.98,1.214-1.137
				c0.105,0.935-0.138,1.855-0.445,2.742c-0.333,0.964-0.697,1.918-1.065,2.869c-0.75,1.937-1.546,3.856-2.344,5.775
				c-1.54,3.705-3.089,7.414-4.317,11.238c-0.703,2.188-1.293,4.411-1.721,6.67c-0.119,0.628,0.848,0.887,0.968,0.252
				c1.563-8.248,5.324-15.807,8.34-23.576c0.477-1.23,1.109-2.575,1.425-3.94c-0.032,0.444,0.647,0.751,0.937,0.279
				c0.201-0.327,0.719-0.104,0.91,0.13c0.388,0.474,0.143,1.285,0.003,1.806c-0.34,1.27-0.728,2.53-1.094,3.794
				c-0.726,2.512-1.455,5.023-2.186,7.534c-1.474,5.061-2.958,10.119-4.452,15.174c-0.182,0.617,0.785,0.87,0.968,0.252
				c1.365-4.617,2.721-9.237,4.069-13.859C64.335,106.414,65.007,104.102,65.677,101.79z"/>
			<path style="fill:#FF9F48;" d="M70.424,95.73c-0.113-0.442-0.35-1.055-0.846-1.185c-0.453-0.119-0.796,0.206-1.036,0.542
				c-0.876,1.231-1.64,2.562-2.406,3.863c-0.326,0.555,0.539,1.055,0.866,0.5c0.587-0.998,1.192-1.986,1.818-2.96
				c0.151-0.235,0.31-0.466,0.457-0.703c0.031-0.051,0.051-0.082,0.075-0.119c0.054,0.087,0.082,0.226,0.107,0.321
				c0.146,0.551,0.127,1.161,0.127,1.728c0.001,2.428-0.449,4.847-0.94,7.217c-0.966,4.659-2.255,9.261-3.548,13.838
				c-0.732,2.592-1.494,5.177-2.282,7.753c-0.188,0.615,0.78,0.868,0.968,0.252c1.577-5.152,3.044-10.336,4.393-15.552
				c0.68-2.631,1.328-5.273,1.807-7.949c0.229-1.28,0.427-2.568,0.531-3.864C70.609,98.227,70.721,96.894,70.424,95.73z"/>
			<path style="fill:#FF9F48;" d="M74.249,118.225c-0.32-0.655-1.038-0.775-1.66-0.49c-0.884,0.406-1.63,1.278-2.352,1.912
				c-0.846,0.744-1.688,1.492-2.526,2.244c-1.677,1.504-3.339,3.025-4.987,4.561c-0.472,0.44,0.232,1.151,0.702,0.712
				c2.678-2.496,5.394-4.951,8.148-7.362c0.331-0.29,0.653-0.602,1.001-0.872c0.353-0.275,0.688-0.501,0.833,0.046
				c0.215,0.812-0.34,2.004-0.675,2.726c-0.697,1.502-1.539,2.947-2.391,4.365c-3.333,5.547-7.367,10.623-11.015,15.958
				c-2.062,3.016-3.997,6.122-5.604,9.407c-0.117,0.24-0.031,0.462,0.125,0.604c-1.128,5.221-2.248,10.446-3.14,15.714
				c-0.925,5.462-1.445,10.943-1.933,16.458c-0.277,3.123-0.614,6.241-1.218,9.32c-0.059,0.301,0.134,0.513,0.363,0.587
				c2.587,4.156,4.34,8.798,6.259,13.283c2.061,4.816,4.121,9.631,6.181,14.447c0.253,0.592,1.119,0.09,0.869-0.495
				c-2.06-4.816-4.121-9.631-6.181-14.447c-1.959-4.578-3.739-9.324-6.416-13.545c-0.008-0.012-0.018-0.017-0.026-0.028
				c0.977-5.199,1.228-10.491,1.756-15.746c0.564-5.612,1.533-11.172,2.644-16.699c0.621-3.09,1.286-6.17,1.952-9.25
				c0.027-0.126,0.002-0.231-0.044-0.323c3.105-6.144,7.307-11.626,11.287-17.216c2.08-2.921,4.106-5.889,5.877-9.011
				c0.832-1.467,1.794-3.015,2.181-4.675C74.411,119.746,74.561,118.864,74.249,118.225z"/>
		</g>
		<g>
			<path style="fill:#FCBC70;" d="M189.61,409.22c-0.69,4.9-4.82,9.12-9.71,9.91c-0.83,0.13-1.72,0.13-2.57-0.01
				c-1.55,0-3.1-0.2-4.61-0.59c-1.34-0.35-2.64-0.86-3.86-1.5c-0.77-0.4-2.76-1.26-1.86-2.41c0.38-0.49,1.09-0.78,1.65-1.02
				c0.6-0.27,1.23-0.48,1.85-0.69c1.33-0.45,2.6-0.98,3.71-1.87c0.39-0.31,0.75-0.66,1.09-1.03c0.55-0.86,1.11-1.73,1.53-2.62
				c-0.2,0.15-0.4,0.27-0.41,0.28c-0.62,0.41-1.25,0.82-1.89,1.21c-2.51,1.54-5.4,2.76-8.39,2.05c-0.25-0.06-0.45-0.36-0.36-0.61
				c0.66-1.87,2.54-3.05,3.86-4.44c1.27-1.35,2.4-2.81,3.41-4.37c0.63-1.14,1.26-2.29,1.89-3.44c0.27-0.48,0.54-0.99,0.51-1.54
				c-0.03-0.73-0.57-1.3-1.08-1.82c-11.86-12.05-21.65-26.15-28.8-41.47c-1.4-4.9-2.93-9.77-4.59-14.58c2.67-0.19,5.16-1,6.36-3.26
				c1.9-3.57-0.99-7.67-1.89-11.62c-1.41-6.21,2.32-12.26,4.73-18.15c1.23-3,2.13-6.05,2.75-9.17c2.09,5.77,2.84,11.95,3.83,18.02
				c3.23,19.58,9.27,38.69,17.86,56.58c4.51,9.37,9.71,18.44,13.3,28.19C189.09,402.45,190.1,405.85,189.61,409.22z"/>
			<path style="fill:#FF9F48;" d="M189.44,403.913c-1-2.648-2.025-5.288-3.037-7.932c-1.132-2.956-2.264-5.913-3.396-8.869
				c-0.228-0.596-1.196-0.343-0.966,0.259c1.852,4.838,3.705,9.676,5.557,14.513c0.441,1.152,0.941,2.3,1.291,3.484
				c0.365,1.231,0.308,2.382-0.123,3.587c-0.816,2.285-2.121,4.482-3.407,6.529c-0.697,1.109-1.454,2.045-2.714,2.516
				c-0.858,0.321-1.772,0.445-2.684,0.523c0.123-0.121,0.254-0.234,0.358-0.378c0.698-0.964,1.23-2.088,1.805-3.129
				c0.641-1.161,1.266-2.33,1.877-3.507c0.296-0.569-0.569-1.073-0.866-0.5c-1.055,2.032-2.149,4.046-3.3,6.025
				c-0.223,0.384-0.447,0.781-0.823,1.035c-0.416,0.282-0.947,0.404-1.435,0.49c-1.064,0.187-2.145,0.063-3.162-0.287
				c0.544-0.22,1.029-0.574,1.44-1.034c0.929-1.039,1.744-2.205,2.572-3.325c0.892-1.206,1.758-2.43,2.602-3.669
				c0.362-0.532-0.505-1.03-0.866-0.5c-1.276,1.873-2.603,3.711-3.989,5.504c-0.573,0.742-1.207,1.796-2.131,2.137
				c-1.049,0.388-2.228-0.205-3.185-0.6c-0.518-0.214-1.035-0.428-1.553-0.642c-0.48-0.199-1.137-0.356-1.563-0.655
				c-0.939-0.66,1.497-1.52,1.936-1.633c1.723-0.443,3.292-0.752,4.639-2.009c1.441-1.345,2.331-3.171,3.15-4.932
				c0.25-0.536-0.468-0.998-0.792-0.6c-0.194-0.048-0.416-0.005-0.565,0.193c-1.057,1.404-2.444,2.534-4.012,3.321
				c-1.482,0.744-3.432,1.377-5.114,1.181c-0.545-0.064-0.833-0.425-0.54-0.964c0.198-0.365,0.592-0.631,0.9-0.895
				c0.719-0.615,1.396-1.277,2.034-1.975c1.237-1.355,2.331-2.839,3.333-4.373c1.118-1.711,2.124-3.491,3.123-5.274
				c0.366-0.012,0.691-0.5,0.365-0.859c-9.114-10.04-18.056-20.453-24.557-32.426c-1.829-3.368-3.45-6.848-4.807-10.433
				c-0.226-0.597-1.194-0.344-0.966,0.259c4.87,12.869,12.996,24.124,21.86,34.526c2.391,2.806,4.846,5.558,7.321,8.291
				c-2.142,3.827-4.341,7.728-7.549,10.779c-0.678,0.645-1.655,1.222-2.035,2.112c-0.34,0.797-0.083,1.694,0.732,2.057
				c0.809,0.361,1.85,0.181,2.694,0.055c0.981-0.148,1.934-0.423,2.849-0.802c1.41-0.583,2.667-1.432,3.762-2.465
				c-0.607,1.09-1.329,2.111-2.309,2.875c-1.696,1.322-4.031,0.993-5.741,2.242c-0.678,0.495-1.353,1.454-0.698,2.246
				c0.291,0.353,0.751,0.492,1.16,0.66l1.996,0.825c1.061,0.439,2.157,1,3.327,1.035c0.209,0.006,0.405-0.025,0.6-0.06
				c-0.147,0.253-0.097,0.653,0.267,0.781c1.337,0.472,3.177,0.632,4.622,0.076c0.062,0.17,0.211,0.298,0.451,0.282
				c2.072-0.145,4.363-0.376,5.866-1.985c0.845-0.904,1.462-2.047,2.079-3.112c0.662-1.144,1.279-2.314,1.846-3.507
				c0.514-1.081,1.015-2.198,1.148-3.4C190.264,406.301,189.887,405.095,189.44,403.913z"/>
		</g>
		<g>
			<path style="fill:#FF9F48;" d="M105.352,210.007c-0.934-0.34-1.863-0.697-2.783-1.074c-0.242-0.099-0.488-0.195-0.726-0.303
				c-0.224-0.102-0.188-0.066-0.137-0.279c0.123-0.513,0.378-1.029,0.56-1.524c0.713-1.943,1.426-3.885,2.139-5.828
				c0.24-0.654-0.81-0.924-1.049-0.273c-0.845,2.301-1.69,4.603-2.534,6.904c-0.163,0.445-0.395,0.923-0.168,1.389
				c0.203,0.418,0.681,0.565,1.078,0.731c1.106,0.461,2.222,0.897,3.348,1.307C105.733,211.294,106.004,210.244,105.352,210.007z"/>
			<circle style="fill:#FF9F48;" cx="91.735" cy="209.528" r="5.152"/>
			<circle style="fill:#FF9F48;" cx="117.55" cy="206.485" r="5.152"/>
			<path style="fill:#38364C;" d="M96.953,191.614c-1.868,0.196-3.718,0.523-5.533,1.006c-0.549,0.146-0.942,0.77-0.767,1.328
				c0.176,0.561,0.742,0.922,1.328,0.766c0.846-0.225,1.7-0.42,2.56-0.579c0.43-0.08,0.862-0.151,1.295-0.215
				c0.084-0.012,0.167-0.024,0.25-0.035c0.039-0.005,0.169-0.021,0.176-0.022c0.234-0.029,0.468-0.055,0.702-0.08
				c0.563-0.059,1.109-0.465,1.078-1.09C98.016,192.154,97.556,191.551,96.953,191.614z"/>
			<path style="fill:#38364C;" d="M118.113,189.557c-2.093-0.292-4.181-0.233-6.25,0.213c-0.556,0.12-0.936,0.788-0.766,1.328
				c0.183,0.583,0.735,0.895,1.328,0.766c0.229-0.049,0.459-0.095,0.69-0.135c0.124-0.022,0.249-0.041,0.374-0.06
				c0.047-0.007,0.063-0.01,0.072-0.012c0.011-0.001,0.03-0.003,0.082-0.009c0.448-0.052,0.896-0.09,1.347-0.107
				c0.45-0.017,0.901-0.015,1.351,0.007c0.216,0.01,0.432,0.025,0.647,0.044c0.108,0.01,0.215,0.021,0.323,0.032
				c0.129,0.015,0.143,0.016,0.043,0.003c0.071,0.009,0.143,0.019,0.214,0.029c0.56,0.078,1.19-0.157,1.322-0.776
				C119.001,190.36,118.715,189.641,118.113,189.557z"/>
			<path style="fill:#38364C;" d="M94.978,196.126c-2.092,0-2.081,3.253,0.018,3.253C97.088,199.378,97.076,196.126,94.978,196.126z
				"/>
			<path style="fill:#38364C;" d="M114.984,192.983c-2.092,0-2.081,3.253,0.018,3.253
				C117.093,196.236,117.082,192.983,114.984,192.983z"/>
			<path style="fill:#FFFFFF;" d="M99.36,213.854l11.863-0.363c0,0-0.726,6.848-6.234,6.65
				C99.48,219.943,99.36,213.854,99.36,213.854z"/>
		</g>
		<g>
			<path style="fill:#FFC23B;" d="M153.577,292.521c-0.173,1.323-0.379,2.634-0.65,3.935c-0.618,3.122-1.518,6.179-2.742,9.171
				c-2.417,5.897-6.146,11.946-4.737,18.157c0.9,3.946,3.794,8.043,1.897,11.62c-1.203,2.255-3.696,3.068-6.363,3.252
				c-1.355,0.087-2.753,0.022-4.043-0.098c-12.596-1.16-25.203-2.32-37.799-3.48c-3.978-0.358-8.022-0.726-11.956-0.022
				c-2.71,0.488-5.615,1.42-8.401,1.962h-0.011c-3.48,0.672-6.797,0.715-9.431-1.485c-3.458-2.894-3.458-8.13-3.165-12.628
				c0.217-3.285,0.434-6.558,0.639-9.832c0.087-1.333,0.174-2.667,0.26-4c0.249-3.783,0.477-7.686-0.77-11.263
				c-0.748-2.125-1.995-4.065-2.569-6.244c-1.041-3.967,0.195-8.564-2.049-12.011c-1.984-3.046-6.157-4.217-7.859-7.425
				c-1.442-2.732-0.726-6.276-2.146-8.975c-0.098-0.195-0.206-0.379-0.336-0.564c-1.995-2.916-6.612-3.62-7.751-6.97
				c-0.867-2.569,0.835-5.149,2.58-7.339c0.163-0.217,0.336-0.434,0.509-0.639c6.146-7.523,11.024-16.108,14.352-25.246
				c0.076-0.206,0.163-0.423,0.249-0.64c0-0.011,0-0.011,0-0.011c0.271-0.64,0.629-1.236,1.236-1.55
				c0.997-0.52,2.211-0.011,3.187,0.564c1.051,0.618,2.07,1.322,3.024,2.092c1.821,1.431,3.458,3.122,4.845,4.986
				c0.932,1.247,1.81,2.645,3.209,3.35c2.352,1.203,5.203,0.033,7.837,0.282c2.959,0.282,5.572,2.645,6.309,5.507
				c-0.065,0.293-0.119,0.574-0.184,0.867v0.011c0.054,0.152,0.108,0.314,0.163,0.466c1.041,3.122,2.309,6.19,4.271,8.824
				c1.897,2.547,4.423,4.629,7.284,5.994c3.089,1.485,6.753,2.125,9.973,0.943c4.368-1.593,6.905-5.994,8.845-10.255
				c0.098-0.228,0.206-0.455,0.304-0.683l0.065-0.618c4.011,0.434,8.032,0.878,12.054,1.312c2.547,0.282,5.106,0.553,7.653,0.835
				c1.312,0.152,2.645,0.293,3.87,0.813c1.908,0.824,3.209,2.341,4.13,4.195c0.477,1.322,0.943,2.645,1.398,3.967
				c3.837,11.133,7.013,22.493,9.507,33.994c0.13,0.607,0.26,1.214,0.184,1.832c-0.174,1.442-1.474,2.537-2.873,2.938
				C156.287,292.781,154.921,292.673,153.577,292.521z"/>
			<path style="fill:#E59810;" d="M153.738,288.489c-0.588-3.065-2.127-5.85-3.578-8.575c-1.628-3.056-3.256-6.112-4.884-9.168
				c-3.7-6.945-7.399-13.891-11.099-20.837c-0.329-0.617-1.27-0.078-0.942,0.537l9.514,17.86c1.585,2.977,3.171,5.953,4.757,8.93
				c1.494,2.805,3.17,5.588,4.314,8.56c0.556,1.445,0.971,2.961,1.067,4.512c0.1,1.629-0.119,3.251-0.447,4.844
				c-0.657,3.182-1.553,6.331-2.513,9.433c-0.948,3.062-2.026,6.076-3.185,9.064c-1.127,2.908-2.185,5.886-1.99,9.054
				c0.2,3.251,1.497,6.432,1.245,9.71c-0.188,2.452-1.355,5.242-3.923,5.963c-0.672,0.189-0.392,1.236,0.281,1.047
				c2.218-0.623,3.627-2.517,4.288-4.645c0.827-2.659,0.341-5.374-0.186-8.041c-0.312-1.579-0.634-3.167-0.649-4.783
				c-0.016-1.7,0.355-3.361,0.87-4.973c1-3.129,2.329-6.151,3.375-9.267c1.066-3.174,2.005-6.391,2.816-9.639
				C153.655,294.933,154.358,291.725,153.738,288.489z"/>
			<path style="fill:#E59810;" d="M71.749,279.172c0.935-1.871,1.922-3.718,2.732-5.648c0.75-1.785,1.769-4.011,1.003-5.945
				c-0.109-0.275-0.353-0.462-0.664-0.383c-3.96,1.004-5.894,4.928-9.039,7.175c-0.092-1.034,0.176-2.072,0.423-3.083
				c0.295-1.21,0.623-2.412,0.975-3.607c0.715-2.433,1.526-4.835,2.361-7.229c1.668-4.784,3.434-9.544,4.714-14.452
				c0.324-1.244,0.62-2.496,0.868-3.757c0.223-1.134,0.396-2.299,0.205-3.451c-0.132-0.797-0.5-1.983-1.518-1.941
				c-1.006,0.042-1.457,1.286-1.846,2.022c-2.486,4.711-4.892,9.464-7.215,14.258c-2.628,5.422-5.149,10.896-7.566,16.415
				c-0.277,0.632,0.659,1.181,0.939,0.542c4.028-9.199,8.35-18.269,12.962-27.19c0.581-1.125,1.168-2.247,1.758-3.367
				c0.193-0.365,0.457-1.214,0.824-1.448c0.534-0.34,0.643,1.133,0.659,1.455c0.061,1.187-0.228,2.375-0.479,3.527
				c-0.257,1.175-0.548,2.342-0.864,3.503c-1.258,4.612-2.917,9.1-4.489,13.611c-0.889,2.551-1.752,5.112-2.5,7.708
				c-0.367,1.275-0.71,2.557-1.007,3.85c-0.28,1.219-0.467,2.454-0.114,3.678c0.095,0.328,0.487,0.514,0.792,0.331
				c1.765-1.061,3.127-2.605,4.532-4.083c1.272-1.338,2.638-2.65,4.399-3.258c0.21,1.076-0.155,2.171-0.519,3.2
				c-0.396,1.121-0.876,2.208-1.389,3.28c-1.035,2.165-2.205,4.266-3.159,6.47c-0.446,1.031-0.852,2.082-1.168,3.161
				c-0.288,0.985-0.683,2.177-0.27,3.18c0.771,1.875,3.131,1.207,4.504,0.515c0.625-0.315,0.084-1.255-0.537-0.942
				c-0.675,0.34-1.702,0.813-2.469,0.506c-1.04-0.416-0.457-1.998-0.242-2.765C69.914,282.976,70.808,281.057,71.749,279.172z"/>
			<path style="fill:#E59810;" d="M80.316,336.063c-2.279,1.324-5.125,1.591-7.57,0.547c-2.277-0.972-4.037-2.919-4.786-5.275
				c-0.837-2.632-0.634-5.474-0.562-8.195c0.082-3.108,0.183-6.215,0.302-9.321c0.133-3.466,0.289-6.932,0.467-10.396
				c0.036-0.697-1.048-0.69-1.084,0.006c-0.344,6.704-0.605,13.412-0.78,20.123c-0.076,2.906-0.238,5.96,0.844,8.72
				c0.916,2.339,2.751,4.27,5.057,5.278c2.789,1.218,6.028,0.979,8.649-0.544C81.457,336.654,80.92,335.712,80.316,336.063z"/>
			<path style="fill:#E59810;" d="M160.66,287.565c-0.665-4.078-1.945-8.083-3.011-12.069c-1.093-4.087-2.186-8.173-3.279-12.26
				c-0.535-2-1.07-4-1.605-6c-0.499-1.864-0.939-3.759-1.556-5.589c-0.563-1.671-1.331-3.328-2.606-4.578
				c-1.432-1.405-3.345-2.085-5.204-2.724c-0.659-0.226-0.931,0.824-0.273,1.049c1.599,0.549,3.289,1.118,4.553,2.291
				c1.12,1.038,1.829,2.418,2.342,3.838c0.567,1.571,0.952,3.208,1.383,4.819l1.5,5.608c1.973,7.376,4.069,14.732,5.899,22.144
				c0.247,0.999,0.477,2.003,0.674,3.013c0.188,0.965,0.438,2.067-0.121,2.96c-1.083,1.732-3.476,1.584-5.238,1.477
				c-0.696-0.042-0.689,1.042,0.006,1.084c1.751,0.106,3.633,0.159,5.124-0.915C160.654,290.702,160.927,289.202,160.66,287.565z"/>
			<path style="fill:#E59810;" d="M88.567,231.951c-0.823-0.595-1.796-0.998-2.801-1.14c-1.158-0.163-2.304,0.061-3.44,0.273
				c-1.292,0.24-2.601,0.427-3.852-0.098c-1.112-0.467-2.033-1.295-2.875-2.139c-1.592-1.595-3.058-3.313-4.722-4.836
				c-1.572-1.439-3.327-2.722-5.365-3.405c-0.833-0.279-2.075-0.702-2.919-0.286c-0.455,0.224-0.713,0.672-0.977,1.085
				c-0.343,0.534-0.677,1.074-1.003,1.618c-2.509,4.18-4.573,8.604-6.795,12.939c-2.484,4.848-5.197,9.629-8.887,13.673
				c-0.469,0.514,0.29,1.288,0.761,0.772c6.227-6.824,9.637-15.503,13.976-23.525c0.534-0.987,1.083-1.966,1.654-2.932
				c0.285-0.482,0.576-0.961,0.873-1.436c0.296-0.473,0.612-1.283,1.247-1.266c2.048,0.055,4.129,1.4,5.657,2.649
				c1.636,1.338,3.061,2.908,4.508,4.441c1.442,1.528,2.971,3.235,5.051,3.857c2.535,0.758,5.052-0.881,7.569-0.187
				c2.199,0.605,3.933,2.639,4.087,4.925c0.047,0.693,1.131,0.693,1.084-0.006C91.262,234.913,90.195,233.128,88.567,231.951z"/>
		</g>
	</g>
</g>
</svg>
