<?xml version="1.0" encoding="UTF-8"?>
<!-- Created with Inkscape (http://www.inkscape.org/) -->
<svg width="399.99" height="78.814" version="1.1" viewBox="0 0 399.99 78.814" xmlns="http://www.w3.org/2000/svg">
 <defs>
  <clipPath id="clipPath5">
   <path transform="translate(-397.8,-123.3)" d="m381.97 96.529h170.99v33.691h-170.99z"/>
  </clipPath>
  <clipPath id="clipPath7">
   <path transform="translate(-398.81,-120.18)" d="m381.97 96.529h170.99v33.691h-170.99z"/>
  </clipPath>
  <clipPath id="clipPath9">
   <path transform="translate(-398.25,-110.97)" d="m381.97 96.529h170.99v33.691h-170.99z"/>
  </clipPath>
  <clipPath id="clipPath11">
   <path transform="translate(-402.42,-110.97)" d="m381.97 96.529h170.99v33.691h-170.99z"/>
  </clipPath>
  <clipPath id="clipPath13">
   <path transform="translate(-409.36,-114.67)" d="m381.97 96.529h170.99v33.691h-170.99z"/>
  </clipPath>
  <clipPath id="clipPath15">
   <path transform="translate(-392.66,-112.77)" d="m381.97 96.529h170.99v33.691h-170.99z"/>
  </clipPath>
  <clipPath id="clipPath17">
   <path transform="translate(-388.4,-111.98)" d="m381.97 96.529h170.99v33.691h-170.99z"/>
  </clipPath>
  <clipPath id="clipPath19">
   <path transform="translate(-400.94,-108.96)" d="m381.97 96.529h170.99v33.691h-170.99z"/>
  </clipPath>
  <clipPath id="clipPath21">
   <path transform="translate(-399.7,-102.23)" d="m381.97 96.529h170.99v33.691h-170.99z"/>
  </clipPath>
  <clipPath id="clipPath23">
   <path transform="translate(-398.81,-98.09)" d="m381.97 96.529h170.99v33.691h-170.99z"/>
  </clipPath>
  <clipPath id="clipPath25">
   <path d="m381.97 96.529h170.99v33.691h-170.99z"/>
  </clipPath>
  <clipPath id="clipPath27">
   <path transform="translate(-438.4,-105.19)" d="m381.97 96.529h170.99v33.691h-170.99z"/>
  </clipPath>
  <clipPath id="clipPath29">
   <path transform="translate(-471.86,-110.26)" d="m381.97 96.529h170.99v33.691h-170.99z"/>
  </clipPath>
  <clipPath id="clipPath31">
   <path transform="translate(-482.97,-117.61)" d="m381.97 96.529h170.99v33.691h-170.99z"/>
  </clipPath>
  <clipPath id="clipPath33">
   <path transform="translate(-494.79,-106.96)" d="m381.97 96.529h170.99v33.691h-170.99z"/>
  </clipPath>
  <clipPath id="clipPath35">
   <path transform="translate(-510.89,-109.26)" d="m381.97 96.529h170.99v33.691h-170.99z"/>
  </clipPath>
  <clipPath id="clipPath37">
   <path transform="translate(-519.66,-120.91)" d="m381.97 96.529h170.99v33.691h-170.99z"/>
  </clipPath>
  <clipPath id="clipPath39">
   <path d="m381.97 96.529h170.99v33.691h-170.99z"/>
  </clipPath>
  <clipPath id="clipPath41">
   <path d="m381.97 96.529h170.99v33.691h-170.99z"/>
  </clipPath>
  <clipPath id="clipPath43">
   <path transform="translate(-534.24,-106.96)" d="m381.97 96.529h170.99v33.691h-170.99z"/>
  </clipPath>
  <clipPath id="clipPath45">
   <path transform="translate(-456.28,-106.96)" d="m381.97 96.529h170.99v33.691h-170.99z"/>
  </clipPath>
  <clipPath id="clipPath47">
   <path transform="translate(-548.67,-117.61)" d="m381.97 96.529h170.99v33.691h-170.99z"/>
  </clipPath>
 </defs>
 <g transform="translate(-.011504 .000922)" fill="#024323">
  <path transform="matrix(2.3394,0,0,-2.3394,37.044,16.193)" d="m0 0v0.891h2.02c0.238 0 0.446-0.208 0.446-0.445 0-0.253-0.208-0.446-0.446-0.446zm0 2.674h1.961c0.208 0 0.386-0.163 0.386-0.386s-0.178-0.386-0.386-0.386h-1.961zm3.58-2.258c0 0.401-0.164 0.758-0.431 1.025 0.193 0.238 0.327 0.535 0.327 0.876 0 0.758-0.624 1.367-1.382 1.367h-3.208v-4.694h3.268c0.787 0 1.426 0.639 1.426 1.426" clip-path="url(#clipPath5)"/>
  <path transform="matrix(2.3394,0,0,-2.3394,39.407,23.49)" d="m0 0 0.817-1.708h-1.649zm-1.322-2.718h2.629l0.386-0.773h1.204l-2.362 4.694h-1.085l-2.347-4.694h1.204z" clip-path="url(#clipPath7)"/>
  <path transform="matrix(2.3394,0,0,-2.3394,38.086,45.036)" d="m0 0h1.114v1.649l2.392 3.06h-1.352l-1.589-2.139-1.605 2.139h-1.337l2.377-3.06z" clip-path="url(#clipPath9)"/>
  <path transform="matrix(2.3394,0,0,-2.3394,47.851,45.036)" d="m0 0h4.249v1.01h-3.135v0.891h3.031v1.01h-3.031v0.788h3.135v1.01h-4.249z" clip-path="url(#clipPath11)"/>
  <path transform="matrix(2.3394,0,0,-2.3394,64.079,36.383)" d="m0 0h1.634c0.238 0 0.446-0.208 0.446-0.446 0-0.252-0.208-0.445-0.446-0.445h-1.634zm-1.114-3.699h1.114v1.797h0.847l1.337-1.797h1.351l-1.381 1.857c0.594 0.164 1.04 0.728 1.04 1.396 0 0.803-0.654 1.456-1.456 1.456h-2.852z" clip-path="url(#clipPath13)"/>
  <path transform="matrix(2.3394,0,0,-2.3394,25.02,40.831)" d="m0 0 0.832 1.708 0.817-1.708zm0.282 2.912-2.347-4.709h1.203l0.372 0.787h2.629l0.386-0.787h1.203l-2.362 4.709z" clip-path="url(#clipPath15)"/>
  <path transform="matrix(2.3394,0,0,-2.3394,15.047,42.672)" d="m0 0h-2.006v0.891h2.006c0.253 0 0.461-0.193 0.461-0.445 0-0.253-0.208-0.446-0.461-0.446m-2.006 2.689h1.961c0.208 0 0.387-0.179 0.387-0.401 0-0.208-0.179-0.387-0.387-0.387h-1.961zm3.462-0.372c0 0.758-0.609 1.367-1.367 1.382h-3.223v-4.709h3.282c0.788 0 1.426 0.638 1.426 1.426 0 0.401-0.163 0.757-0.43 1.025 0.193 0.237 0.312 0.55 0.312 0.876" clip-path="url(#clipPath17)"/>
  <path transform="matrix(2.3394,0,0,-2.3394,44.376,49.727)" d="m0 0v0.995h-4.248v-4.694h4.248v1.01h-3.134v0.892h3.015v1.01h-3.015v0.787z" clip-path="url(#clipPath19)"/>
  <path transform="matrix(2.3394,0,0,-2.3394,41.492,65.469)" d="m0 0h-1.901v0.906h1.901c0.253-0.015 0.446-0.208 0.446-0.46 0-0.238-0.193-0.431-0.446-0.446m1.56 0.446c0 0.802-0.639 1.455-1.441 1.455h-3.134v-4.694h1.114v1.783h1.292l1.337-1.783h1.337l-1.411 1.887c0.534 0.223 0.906 0.743 0.906 1.352" clip-path="url(#clipPath21)"/>
  <path transform="matrix(2.3394,0,0,-2.3394,39.407,75.164)" d="m0 0c-8.438 0-15.285 6.833-15.285 15.285 0 8.438 6.847 15.271 15.285 15.271 8.437 0 15.285-6.833 15.285-15.271 0-8.452-6.848-15.285-15.285-15.285m0 32.13c-9.299 0-16.845-7.546-16.845-16.845s7.546-16.845 16.845-16.845 16.845 7.546 16.845 16.845-7.546 16.845-16.845 16.845" clip-path="url(#clipPath23)"/>
  <path transform="matrix(2.3394,0,0,-2.3394,-893.57,304.63)" d="m425.58 97.92h1.663v30.909h-1.663z" clip-path="url(#clipPath25)"/>
  <path transform="matrix(2.3394,0,0,-2.3394,132.02,58.562)" d="m0 0h2.924v7.416h7.557v2.387h-7.557v4.375h8.61v2.526h-11.534z" clip-path="url(#clipPath27)"/>
  <path transform="matrix(2.3394,0,0,-2.3394,210.29,46.685)" d="m0 0c0-1.872-0.749-3.299-2.971-3.299-1.451 0-2.316 0.772-2.316 2.901v7.417h-2.667v-7.674c0-3.158 1.356-4.749 4.515-4.749 1.333 0 2.784 0.795 3.439 2.012h0.047v-1.685h2.62v12.096h-2.667z" clip-path="url(#clipPath29)"/>
  <path transform="matrix(2.3394,0,0,-2.3394,236.29,29.5)" d="m0 0c-1.591 0-2.971-0.819-3.767-2.152l-0.047 0.046v1.779h-2.526v-12.096h2.667v7.136c0 1.778 1.146 3.181 2.924 3.181 1.568 0 2.316-0.818 2.363-2.713v-7.604h2.667v8.305c0 2.714-1.661 4.118-4.281 4.118" clip-path="url(#clipPath31)"/>
  <path transform="matrix(2.3394,0,0,-2.3394,263.93,54.402)" d="m0 0c-2.316 0-3.345 2.059-3.345 4.141 0 2.176 0.888 4.398 3.392 4.398 2.058 0 3.345-1.591 3.345-4.258 0-2.105-1.005-4.281-3.392-4.281m3.299 8.75h-0.047c-0.819 1.333-2.503 1.895-4.024 1.895-2.644 0-5.241-1.919-5.241-6.294 0-3.626 1.849-6.457 5.662-6.457 1.521 0 3.041 0.585 3.743 1.965h0.047v-1.637h2.527v16.704h-2.667z" clip-path="url(#clipPath33)"/>
  <path transform="matrix(2.3394,0,0,-2.3394,301.59,49.039)" d="m0 0c0-1.685-1.825-2.293-2.995-2.293-0.935 0-2.456 0.351-2.456 1.544 0 1.404 1.03 1.825 2.176 2.012 1.17 0.211 2.457 0.188 3.275 0.726zm2.667-1.38v6.223c0 2.55-2.48 3.509-4.842 3.509-2.667 0-5.311-0.912-5.499-4.024h2.668c0.117 1.31 1.169 1.919 2.667 1.919 1.076 0 2.503-0.258 2.503-1.638 0-1.568-1.708-1.357-3.626-1.708-2.246-0.257-4.655-0.749-4.655-3.767 0-2.363 1.964-3.532 4.14-3.532 1.427 0 3.135 0.444 4.188 1.474 0.211-1.1 0.983-1.474 2.058-1.474 0.445 0 1.287 0.163 1.685 0.304v1.848c-0.281-0.047-0.491-0.047-0.655-0.047-0.492 0-0.632 0.258-0.632 0.913" clip-path="url(#clipPath35)"/>
  <path transform="matrix(2.3394,0,0,-2.3394,322.12,21.783)" d="m0 0h-2.667v-3.626h-2.012v-1.989h2.012v-7.136c0.047-2.012 0.561-3.088 3.345-3.088 0.585 0 1.147 0.094 1.732 0.141v2.059c-0.374-0.094-0.749-0.094-1.123-0.094-1.193 0-1.287 0.561-1.287 1.661v6.457h2.41v1.989h-2.41z" clip-path="url(#clipPath37)"/>
  <path transform="matrix(2.3394,0,0,-2.3394,-893.57,304.63)" d="m523.83 119.36h2.667v2.527h-2.667z" clip-path="url(#clipPath39)"/>
  <path transform="matrix(2.3394,0,0,-2.3394,-893.57,304.63)" d="m523.83 105.19h2.667v12.095h-2.667z" clip-path="url(#clipPath41)"/>
  <path transform="matrix(2.3394,0,0,-2.3394,356.21,54.402)" d="m0 0c-2.386 0-3.439 2.176-3.439 4.281 0 2.082 1.053 4.258 3.439 4.258s3.439-2.176 3.439-4.258c0-2.105-1.053-4.281-3.439-4.281m0 10.645c-3.884 0-6.106-2.667-6.106-6.364 0-3.72 2.222-6.387 6.106-6.387 3.883 0 6.106 2.667 6.106 6.387 0 3.697-2.223 6.364-6.106 6.364" clip-path="url(#clipPath43)"/>
  <path transform="matrix(2.3394,0,0,-2.3394,173.84,54.402)" d="m0 0c-2.387 0-3.44 2.176-3.44 4.281 0 2.082 1.053 4.258 3.44 4.258 2.386 0 3.439-2.176 3.439-4.258 0-2.105-1.053-4.281-3.439-4.281m0 10.645c-3.884 0-6.106-2.667-6.106-6.364 0-3.72 2.222-6.387 6.106-6.387 3.883 0 6.106 2.667 6.106 6.387 0 3.697-2.223 6.364-6.106 6.364" clip-path="url(#clipPath45)"/>
  <path transform="matrix(2.3394,0,0,-2.3394,389.99,29.5)" d="m0 0c-1.591 0-2.971-0.819-3.767-2.152l-0.047 0.046v1.779h-2.526v-12.096h2.667v7.136c0 1.778 1.146 3.181 2.924 3.181 1.568 0 2.316-0.818 2.363-2.713v-7.604h2.667v8.305c0 2.714-1.661 4.118-4.281 4.118" clip-path="url(#clipPath47)"/>
 </g>
</svg>
