<?xml version="1.0" encoding="UTF-8" standalone="no"?>
<!-- Created with Inkscape (http://www.inkscape.org/) -->

<svg
   xmlns:dc="http://purl.org/dc/elements/1.1/"
   xmlns:cc="http://creativecommons.org/ns#"
   xmlns:rdf="http://www.w3.org/1999/02/22-rdf-syntax-ns#"
   xmlns:svg="http://www.w3.org/2000/svg"
   xmlns="http://www.w3.org/2000/svg"
   xmlns:sodipodi="http://sodipodi.sourceforge.net/DTD/sodipodi-0.dtd"
   xmlns:inkscape="http://www.inkscape.org/namespaces/inkscape"
   width="113.392"
   height="95.476028"
   viewBox="0 0 30.001632 25.261365"
   version="1.1"
   id="svg11295"
   inkscape:version="0.92.0 r15299"
   sodipodi:docname="merial.svg">
  <defs
     id="defs11289" />
  <sodipodi:namedview
     id="base"
     pagecolor="#ffffff"
     bordercolor="#666666"
     borderopacity="1.0"
     inkscape:pageopacity="0.0"
     inkscape:pageshadow="2"
     inkscape:zoom="5.4493022"
     inkscape:cx="56.49934"
     inkscape:cy="48.905344"
     inkscape:document-units="mm"
     inkscape:current-layer="layer1"
     showgrid="false"
     fit-margin-top="0"
     fit-margin-left="0"
     fit-margin-right="0"
     fit-margin-bottom="0"
     units="px"
     inkscape:window-width="1280"
     inkscape:window-height="744"
     inkscape:window-x="-4"
     inkscape:window-y="-4"
     inkscape:window-maximized="1" />
  <metadata
     id="metadata11292">
    <rdf:RDF>
      <cc:Work
         rdf:about="">
        <dc:format>image/svg+xml</dc:format>
        <dc:type
           rdf:resource="http://purl.org/dc/dcmitype/StillImage" />
        <dc:title></dc:title>
      </cc:Work>
    </rdf:RDF>
  </metadata>
  <g
     inkscape:label="Layer 1"
     inkscape:groupmode="layer"
     id="layer1"
     transform="translate(-55.354788,-136.51151)">
    <g
       id="g11327"
       transform="translate(0.13229198,-0.13228417)">
      <g
         transform="matrix(0.35277777,0,0,-0.35277777,55.646535,161.73759)"
         id="g10857">
        <path
           inkscape:connector-curvature="0"
           id="path10859"
           style="fill:#36988a;fill-opacity:1;fill-rule:nonzero;stroke:none"
           d="M 0,0 0.647,1.783 H 3.108 L 3.794,0 H 4.682 L 2.273,5.886 H 1.434 L -0.827,0 Z M 1.518,4.143 C 1.655,4.515 1.76,4.89 1.835,5.267 1.926,4.949 2.065,4.542 2.253,4.047 L 2.867,2.417 H 0.872 Z M 8.041,0.833 C 8.246,0.521 8.528,0.288 8.888,0.133 9.248,-0.023 9.694,-0.1 10.227,-0.1 c 0.42,0 0.798,0.077 1.134,0.231 0.336,0.154 0.594,0.369 0.773,0.646 0.179,0.277 0.269,0.572 0.269,0.885 0,0.316 -0.082,0.595 -0.245,0.837 C 11.995,2.742 11.742,2.942 11.399,3.1 11.164,3.207 10.73,3.332 10.097,3.475 9.464,3.618 9.072,3.758 8.922,3.894 8.77,4.031 8.694,4.205 8.694,4.416 8.694,4.66 8.801,4.868 9.017,5.041 9.232,5.213 9.575,5.3 10.046,5.3 10.499,5.3 10.841,5.205 11.072,5.015 11.304,4.824 11.44,4.543 11.48,4.171 l 0.746,0.057 C 12.213,4.573 12.117,4.882 11.937,5.155 11.758,5.428 11.502,5.635 11.169,5.775 10.835,5.916 10.451,5.986 10.014,5.986 9.618,5.986 9.258,5.919 8.934,5.785 8.611,5.651 8.364,5.455 8.196,5.197 8.027,4.939 7.943,4.661 7.943,4.364 7.943,4.094 8.012,3.85 8.15,3.631 8.287,3.413 8.497,3.231 8.778,3.083 8.995,2.968 9.373,2.846 9.914,2.716 c 0.541,-0.13 0.89,-0.225 1.048,-0.287 0.246,-0.094 0.423,-0.209 0.53,-0.347 0.107,-0.138 0.16,-0.299 0.16,-0.484 0,-0.182 -0.055,-0.35 -0.166,-0.504 C 11.375,0.94 11.205,0.819 10.978,0.731 10.75,0.643 10.488,0.598 10.191,0.598 9.856,0.598 9.555,0.657 9.288,0.773 9.02,0.889 8.823,1.042 8.696,1.231 8.568,1.419 8.487,1.661 8.453,1.955 L 7.718,1.891 C 7.729,1.498 7.836,1.145 8.041,0.833 Z M 13.755,0 14.401,1.783 h 2.461 L 17.548,0 h 0.888 L 16.027,5.886 H 15.188 L 12.928,0 Z m 1.517,4.143 c 0.137,0.372 0.242,0.747 0.317,1.124 0.091,-0.318 0.23,-0.725 0.418,-1.22 l 0.614,-1.63 H 14.626 Z M 20.038,0 V 4.625 L 23.13,0 h 0.799 V 5.886 H 23.182 V 1.265 L 20.091,5.886 H 19.292 V 0 Z m 5.464,1.397 C 25.727,0.934 26.058,0.569 26.494,0.301 26.93,0.034 27.425,-0.1 27.979,-0.1 c 0.512,0 0.988,0.121 1.43,0.363 0.441,0.242 0.782,0.599 1.023,1.07 0.241,0.471 0.362,1.005 0.362,1.602 0,0.589 -0.115,1.115 -0.344,1.58 -0.228,0.464 -0.561,0.826 -0.997,1.086 -0.437,0.259 -0.926,0.389 -1.47,0.389 -0.829,0 -1.507,-0.276 -2.031,-0.829 -0.525,-0.553 -0.787,-1.317 -0.787,-2.294 0,-0.517 0.112,-1.007 0.337,-1.47 z m 1.062,3.355 c 0.398,0.378 0.872,0.568 1.423,0.568 0.388,0 0.738,-0.099 1.05,-0.295 0.312,-0.197 0.549,-0.474 0.711,-0.831 0.162,-0.358 0.243,-0.776 0.243,-1.255 0,-0.758 -0.19,-1.342 -0.568,-1.754 -0.379,-0.413 -0.862,-0.619 -1.448,-0.619 -0.575,0 -1.054,0.204 -1.435,0.612 -0.381,0.409 -0.572,0.967 -0.572,1.677 0,0.886 0.199,1.518 0.596,1.897 z M 32.791,0 v 2.674 h 2.762 v 0.695 h -2.762 v 1.822 h 3.191 v 0.695 h -3.97 V 0 Z m 4.305,0 h 0.77899 V 5.886 H 37.096 Z m 0.779,0 z m 7.637,0.944 C 45.21,0.692 44.84,0.566 44.404,0.566 c -0.359,0 -0.692,0.093 -1,0.277 -0.307,0.185 -0.534,0.464 -0.68,0.837 -0.146,0.374 -0.219,0.811 -0.219,1.311 0,0.388 0.062,0.765 0.185,1.13 0.123,0.366 0.336,0.657 0.64,0.873 0.304,0.217 0.682,0.326 1.134,0.326 0.394,0 0.72,-0.098 0.98,-0.293 0.259,-0.196 0.457,-0.508 0.594,-0.936 l 0.767,0.181 c -0.158,0.543 -0.438,0.965 -0.839,1.264 -0.402,0.3 -0.897,0.45 -1.486,0.45 -0.519,0 -0.995,-0.118 -1.427,-0.355 -0.432,-0.237 -0.765,-0.584 -1,-1.04 C 41.819,4.135 41.702,3.6 41.702,2.987 c 0,-0.562 0.104,-1.088 0.311,-1.578 0.208,-0.489 0.51,-0.863 0.908,-1.122 0.397,-0.258 0.913,-0.387 1.547,-0.387 0.613,0 1.132,0.168 1.556,0.504 0.424,0.335 0.718,0.823 0.881,1.463 L 46.126,2.064 C 46.019,1.569 45.815,1.195 45.512,0.944 Z m 2.581,0.453 C 48.318,0.934 48.649,0.569 49.085,0.301 49.521,0.034 50.016,-0.1 50.57,-0.1 c 0.512,0 0.988,0.121 1.43,0.363 0.441,0.242 0.783,0.599 1.023,1.07 0.241,0.471 0.362,1.005 0.362,1.602 0,0.589 -0.115,1.115 -0.344,1.58 C 52.813,4.979 52.48,5.341 52.044,5.601 51.608,5.86 51.118,5.99 50.574,5.99 49.745,5.99 49.068,5.714 48.543,5.161 48.018,4.608 47.756,3.844 47.756,2.867 c 0,-0.517 0.113,-1.007 0.337,-1.47 z m 1.062,3.355 c 0.398,0.378 0.872,0.568 1.423,0.568 0.388,0 0.738,-0.099 1.05,-0.295 0.312,-0.197 0.549,-0.474 0.711,-0.831 0.162,-0.358 0.243,-0.776 0.243,-1.255 0,-0.758 -0.19,-1.342 -0.568,-1.754 -0.379,-0.413 -0.861,-0.619 -1.448,-0.619 -0.575,0 -1.053,0.204 -1.435,0.612 -0.381,0.409 -0.572,0.967 -0.572,1.677 0,0.886 0.199,1.518 0.596,1.897 z M 55.323,0 V 5.011 L 57.025,0 h 0.703 l 1.71,4.926 V 0 h 0.751 V 5.886 H 59.141 L 57.732,1.791 C 57.59,1.376 57.486,1.061 57.419,0.847 57.36,1.04 57.266,1.33 57.138,1.718 L 55.745,5.886 H 54.572 V 0 Z m 7.121,0 v 2.393 h 1.509 c 0.833,0 1.408,0.173 1.727,0.52 0.318,0.346 0.477,0.77 0.477,1.271 0,0.291 -0.059,0.559 -0.178,0.802 C 65.86,5.23 65.702,5.419 65.507,5.555 65.312,5.69 65.069,5.781 64.78,5.829 64.574,5.867 64.276,5.886 63.885,5.886 h -2.22 V 0 Z m 0,5.191 h 1.505 c 0.354,0 0.596,-0.017 0.727,-0.052 0.203,-0.056 0.367,-0.172 0.492,-0.347 0.124,-0.176 0.187,-0.386 0.187,-0.633 0,-0.34 -0.106,-0.603 -0.318,-0.79 C 64.826,3.181 64.469,3.087 63.965,3.087 H 62.444 Z M 66.996,0 67.642,1.783 h 2.461 L 70.79,0 h 0.887 L 69.268,5.886 H 68.429 L 66.169,0 Z m 1.517,4.143 c 0.137,0.372 0.243,0.747 0.318,1.124 0.091,-0.318 0.23,-0.725 0.417,-1.22 l 0.614,-1.63 H 67.867 Z M 73.28,0 V 4.625 L 76.371,0 H 77.17 V 5.886 H 76.423 V 1.265 L 73.332,5.886 H 72.533 V 0 Z m 7.839,0 v 2.493 l 2.348,3.393 H 82.56 L 81.42,4.155 C 81.168,3.77 80.954,3.423 80.778,3.116 80.593,3.447 80.393,3.779 80.179,4.111 l -1.16,1.775 H 78.072 L 80.34,2.493 V 0 h 0.779" />
      </g>
      <g
         transform="matrix(0.35277777,0,0,-0.35277777,85.057263,150.86215)"
         id="g10863">
        <path
           inkscape:connector-curvature="0"
           id="path10865"
           style="fill:#1c4c3c;fill-opacity:1;fill-rule:nonzero;stroke:none"
           d="M 0,0 V 39.929 H -83.894 V -0.878 c 11.576,9.463 26.371,15.142 42.495,15.142 C -25.78,14.264 -11.407,8.936 0,0" />
      </g>
      <g
         transform="matrix(0.35277777,0,0,-0.35277777,85.056554,158.40948)"
         id="g10867">
        <path
           inkscape:connector-curvature="0"
           id="path10869"
           style="fill:#36988a;fill-opacity:1;fill-rule:nonzero;stroke:none"
           d="M 0,0 V 18.913 C -11.351,27.688 -25.863,32.943 -41.326,32.912 -65.699,32.864 -82.053,14.369 -83.896,0 H 0" />
      </g>
      <g
         transform="matrix(0.35277777,0,0,-0.35277777,60.997815,139.09737)"
         id="g10871">
        <path
           inkscape:connector-curvature="0"
           id="path10873"
           style="fill:#ffffff;fill-opacity:1;fill-rule:nonzero;stroke:none"
           d="M 0,0 -3.396,-10.215 -6.792,0 h -4.922 v -14.803 h 3.672 l -0.251,9.423 3.172,-9.423 h 3.61 l 3.062,9.293 -0.2,-9.293 H 4.903 V 0 Z M 13.089,0 C 8.318,0 6.095,-2.434 6.095,-7.659 c 0,-2.696 0.75,-4.604 2.292,-5.832 1.518,-1.214 2.992,-1.312 4.623,-1.312 h 5.352 v 3.087 h -5.214 c -2.118,0 -2.972,0.784 -3.063,2.86 h 8.277 v 3.087 h -8.241 c 0.19,1.85 1.134,2.682 3.027,2.682 h 5.214 V 0 Z m 21.497,0 h 3.743 v -14.803 h -3.743 z m 3.743,0 z M 49.18,0 h -3.573 l -6.274,-14.803 h 3.844 l 1.267,3.378 h 5.744 l 1.305,-3.378 h 4.002 z m -1.9,-3.988 1.696,-4.291 h -3.329 z m 18.154,-7.847 v -2.968 h -4.086 c -2.006,0 -3.531,0.113 -4.911,1.578 -1.152,1.213 -1.371,2.511 -1.371,4.48 V 0 h 3.605 v -8.646 c 0,-1.169 0.028,-1.911 0.421,-2.37 0.51,-0.605 1.167,-0.819 2.513,-0.819 z m -32.376,-1.481 c -0.009,0.138 -0.072,0.804 -0.083,0.977 -0.088,1.097 -0.134,1.414 -0.383,2.025 -0.152,0.37 -0.355,0.736 -0.586,1.059 -0.308,0.373 -0.6,0.607 -1.067,0.83 0.222,0.11 0.411,0.236 0.647,0.422 0.373,0.285 0.688,0.656 0.908,1.072 0.367,0.602 0.608,1.637 0.608,2.623 0,1.864 -1.155,3.439 -2.876,3.92 -0.878,0.225 -1.906,0.329 -3.242,0.329 h -7.222 v -14.747 h 3.629 v 5.359 h 2.108 c 2.516,0 3.27,-0.659 3.509,-3.069 l 0.107,-0.997 c 0.044,-0.489 0.293,-1.293 0.293,-1.293 h 4.02 c 0,0 -0.309,0.984 -0.37,1.49 z m -4.809,7.106 c -0.243,-0.061 -0.605,-0.098 -0.947,-0.098 h -3.911 v 3.111 h 3.911 c 0.814,0 1.103,-0.093 1.351,-0.264 0.342,-0.239 0.524,-0.657 0.524,-1.207 0,-0.841 -0.338,-1.404 -0.928,-1.542" />
      </g>
    </g>
  </g>
</svg>
