<?xml version="1.0" encoding="utf-8"?>
<!-- Generator: Adobe Illustrator 19.2.1, SVG Export Plug-In . SVG Version: 6.00 Build 0)  -->
<svg version="1.1" id="レイヤー_1" xmlns="http://www.w3.org/2000/svg" xmlns:xlink="http://www.w3.org/1999/xlink" x="0px"
	 y="0px" viewBox="0 0 2185.1 600" style="enable-background:new 0 0 2185.1 600;" xml:space="preserve">
<style type="text/css">
	.st0{fill:#9E9E9F;}
	.st1{fill:#B4B4B5;}
	.st2{fill:#D7063A;}
	.st3{fill:#A61E41;}
</style>
<g>
	<path class="st0" d="M1020.4,407.6c0-19.3,15-36.8,39.6-36.8c30.4,0,37.2,12.6,43,26.1l7.2,17.4h5.3l2.9-50.8
		c-9.6-2.4-38.6-5.8-50.2-5.8c-59.9,0-84.5,37.2-84.5,63.8c0,68.6,107.7,58.4,107.7,118.8c0,28-23.2,40.1-47.3,40.1
		c-13.5,0-24.7-4.4-30.9-9.7c-3.9-2.8-13.1-20.7-16.9-38.1h-5.3l-2.9,56.5c12.5,1.4,26.1,4.3,44,4.3c76.8,0,96.1-37.7,96.1-66.7
		C1128.1,449.6,1020.4,465,1020.4,407.6z"/>
	<path class="st0" d="M1290.4,553.9c-8.2,8.2-21.7,18.8-35.7,18.8c-9.2,0-24.2-8.2-24.2-30.4V379.1h55.5V366h-55.5v-56.5h-6.8
		c-9.6,29.4-42,54.6-68.6,60.8v8.7h38.7v81.2c0,27-1.4,67.6-1.4,89.4c0,39.1,25.1,45,37.7,45c21.8,0,37.2-7.2,67.7-31.4
		L1290.4,553.9z"/>
	<path class="st0" d="M1502,447.2c10.6-0.5,14-3.4,14-15c0-42-27.1-74.4-84.1-74.4c-74.4,0-111.1,61.8-111.1,120.3
		c0,68.1,41.1,115.5,102.4,115.5c33.3,0,63.3-9.6,85.5-34.8l-6.8-8.7c-14,14.5-33.4,21.8-54.6,21.8c-57,0-83.1-54.6-83.1-108.3
		c0-5.3,0.5-11.1,0.9-16.4H1502z M1423.7,367.9c34.3,0,48.8,23.2,48.8,55.6v8.7c-7.3,0.5-14,0.5-29.4,1l-76.9,1.9
		C1373,395,1394.3,367.9,1423.7,367.9z"/>
	<g>
		<path class="st0" d="M1606.3,537.5V346.2c0-32.9,1.9-65.7,2.9-98.6c-26.1,2.9-52.7,3.9-79.3,3.9v6.7l28.5,9.2
			c3.4,1,6.8,2.9,7.7,5.3c1.5,3.4,3.4,20.8,3.4,41.1v223.7c0,23.7-1.9,31.9-16.9,36.7L1530,582v6.7c17.9-1.9,37.2-3.9,56.5-3.9
			c19.8,0,40.1,1.9,59.4,3.9V582l-23.7-7.8C1607.3,569.4,1606.3,561.2,1606.3,537.5z"/>
		<path class="st0" d="M1756.6,574.2c-15-4.8-16-13-16-36.7V346.2c0-32.9,1.9-65.7,2.9-98.6c-26.1,2.9-52.7,3.9-79.2,3.9v6.7
			l28.5,9.2c3.4,1,6.8,2.9,7.7,5.3c1.5,3.4,3.4,20.8,3.4,41.1v223.7c0,23.7-1.9,31.9-16.9,36.7l-22.7,7.8v6.7
			c17.8-1.9,37.2-3.9,56.5-3.9c19.8,0,40.1,1.9,59.5,3.9V582L1756.6,574.2z"/>
	</g>
	<path class="st0" d="M1976.9,550.5V415.7c0-44.9-33.8-58-72.4-58c-37.7,0-65.7,19.4-88.4,55.6l12.1,6.8
		c14.5-21.8,37.7-37.2,64.2-37.2c27.5,0,48.8,10.1,48.8,45.9v25.6h-3.4c-79.7,0-135.7,24.7-135.7,79.7c0,41.6,28.5,59.4,63.8,59.4
		c35.3,0,56-20.8,74.8-45.9h1l-1.4,41c11.6-1.9,23.7-3.9,35.2-3.9c12.1,0,24.7,1.9,37.2,3.9V582
		C1982.2,576.1,1976.9,573.8,1976.9,550.5z M1940.2,507.5c0,38.6-25.7,60.9-56.6,60.9c-27.5,0-41-16.4-41-42
		c0-52.2,58.5-58.9,97.6-58.9V507.5z"/>
	<path class="st0" d="M920.5,550.5V415.7c0-44.9-33.8-58-72.4-58c-37.6,0-65.7,19.4-88.4,55.6l12.1,6.8
		c14.5-21.8,37.7-37.2,64.3-37.2c27.5,0,48.8,10.1,48.8,45.9v25.6h-3.4c-79.7,0-135.8,24.7-135.8,79.7c0,41.6,28.5,59.4,63.8,59.4
		c35.3,0,56-20.8,74.9-45.9h1l-1.4,41c11.5-1.9,23.7-3.9,35.2-3.9c12.1,0,24.7,1.9,37.2,3.9V582
		C925.8,576.1,920.5,573.8,920.5,550.5z M883.8,507.5c0,38.6-25.6,60.9-56.6,60.9c-27.5,0-41.1-16.4-41.1-42
		c0-52.2,58.5-58.9,97.6-58.9V507.5z"/>
	<path class="st0" d="M2077.4,407.6c0-19.3,15-36.8,39.6-36.8c30.4,0,37.2,12.6,43,26.1l7.2,17.4h5.3l2.9-50.8
		c-9.7-2.4-38.7-5.8-50.3-5.8c-59.9,0-84.5,37.2-84.5,63.8c0,68.6,107.7,58.4,107.7,118.8c0,28-23.2,40.1-47.3,40.1
		c-13.6,0-24.7-4.4-31-9.7c-3.8-2.8-13-20.7-16.9-38.1h-5.3l-2.9,56.5c12.6,1.4,26.1,4.3,44,4.3c76.8,0,96.1-37.7,96.1-66.7
		C2185.1,449.6,2077.4,465,2077.4,407.6z"/>
	<path class="st1" d="M651.6,240.5c-51.7,45.2-125.3,87.1-198.1,129.8c-18.4,87.9-40,171.9-77,229.7
		c81.2-39.7,160.7-145.5,202.2-236.2c40.4,9.2,80.8,33.8,105.3,56.3C690.3,350.1,673.6,292.5,651.6,240.5z"/>
	<path class="st1" d="M577.4,0c-32.5,29.1-54.7,78-72.2,136.7c39.7,10.5,76.6,19.4,109.4,24.9C589.2,108.3,568.6,57.5,577.4,0z"/>
	<path class="st2" d="M0,60.7c152.2,20.5,285.2,101.5,378.4,213.9c-57.8,62.6-135.8,169.1-154,273.2c43-66.4,135.4-122.7,229-177.5
		c16.8-80.3,31-163.8,51.8-233.6C348.6,95.2,150,29.9,0,60.7z"/>
	<path class="st2" d="M614.6,161.7c12.1,25.4,25.3,51.3,37,78.9c28.2-24.7,49.9-50.3,61.3-77.6C688,169.9,654.3,168.3,614.6,161.7z"
		/>
	<path class="st3" d="M614.6,161.7c-32.8-5.5-69.7-14.4-109.4-24.9c-20.8,69.8-35,153.3-51.8,233.6
		c72.9-42.7,146.5-84.6,198.1-129.8C639.9,213,626.8,187,614.6,161.7z"/>
</g>
</svg>
