<svg width="124" height="43" viewBox="0 0 124 43" fill="none" xmlns="http://www.w3.org/2000/svg">
<g id="Frame" clip-path="url(#clip0_2629_27419)">
<path id="Vector" d="M28.3568 36.2167V12.7482H37.4221C38.7102 12.716 39.9958 12.8774 41.2368 13.2271C42.305 13.592 43.2261 14.2985 43.8606 15.2393C44.6075 16.2847 44.9963 17.5474 44.968 18.8359C44.9929 20.0588 44.5962 21.2524 43.8456 22.2127C43.0678 23.1845 41.9648 23.8358 40.7443 24.0441C42.38 24.3313 43.6178 25.002 44.4576 26.0563C45.3014 27.1171 45.7483 28.4436 45.7202 29.8036C45.7419 30.6449 45.5971 31.4822 45.2942 32.2663C44.9913 33.0505 44.5364 33.7657 43.9561 34.3702C42.78 35.6032 40.9712 36.2187 38.5295 36.2167H28.3568ZM32.3238 22.6013H37.431C37.8788 22.633 38.3281 22.5684 38.7493 22.4119C39.1706 22.2554 39.5541 22.0104 39.8746 21.6933C40.195 21.3761 40.4452 20.994 40.6085 20.572C40.7718 20.1501 40.8445 19.698 40.8219 19.2456C40.8219 18.1702 40.4757 17.375 39.7832 16.8659C39.0749 16.3512 38.2201 16.0827 37.3475 16.1008H32.3178L32.3238 22.6013ZM32.3238 32.6924H37.7444C38.8907 32.6924 39.7961 32.3911 40.4607 31.7887C40.7783 31.4673 41.03 31.0857 41.2012 30.666C41.3724 30.2462 41.4598 29.7965 41.4584 29.3426C41.457 28.8887 41.3668 28.4395 41.1931 28.0208C41.0193 27.6022 40.7654 27.2222 40.4458 26.9028C39.7049 26.2497 38.742 25.9117 37.7594 25.9599H32.3178L32.3238 32.6924Z" fill="#0092CC"/>
<path id="Vector_2" d="M51.7975 16.8206H47.9171V12.748H51.7975V16.8206ZM51.7975 36.2196H47.9171V18.8509H51.7975V36.2196Z" fill="#0092CC"/>
<path id="Vector_3" d="M61.7881 36.5775C59.2429 36.5775 57.2997 35.6548 55.9585 33.8093C54.6208 31.9726 53.9153 29.7446 53.9496 27.4654C53.9496 24.899 54.6909 22.7613 56.1734 21.0523C57.6559 19.3434 59.612 18.4889 62.0418 18.4889C63.1104 18.4605 64.1721 18.6691 65.152 19.1001C66.132 19.5311 67.0063 20.1738 67.7131 20.983C69.1957 22.6458 69.9369 24.8066 69.9369 27.4654C69.9369 30.2046 69.1678 32.4136 67.6296 34.0924C66.888 34.9076 65.9817 35.5526 64.9719 35.9839C63.962 36.4152 62.8723 36.6228 61.7761 36.5926L61.7881 36.5775ZM61.9104 33.3604C64.5252 33.3604 65.8316 31.3944 65.8297 27.4624C65.8297 25.6852 65.5172 24.2845 64.8924 23.2603C64.2675 22.2361 63.3084 21.723 62.0149 21.721C60.6737 21.721 59.6787 22.2512 59.03 23.3115C58.3813 24.3718 58.0579 25.7776 58.0599 27.5287C58.0599 29.4204 58.4041 30.8643 59.0927 31.8603C59.3944 32.3347 59.8122 32.7226 60.3058 32.9864C60.7994 33.2502 61.3521 33.3811 61.9104 33.3665" fill="#0092CC"/>
<path id="Vector_4" d="M99.7474 30.6795L103.258 31.1614C102.817 32.7148 101.884 34.0797 100.601 35.0473C99.2818 36.0694 97.6291 36.5795 95.6432 36.5775C93.2552 36.5775 91.3349 35.7742 89.8822 34.1677C88.4296 32.5611 87.7032 30.3722 87.7032 27.6009C87.7032 24.9763 88.4355 22.8044 89.9002 21.0854C91.3648 19.3664 93.3547 18.5059 95.87 18.5039C98.3236 18.5039 100.22 19.3524 101.559 21.0493C102.899 22.7462 103.571 24.919 103.577 27.5678L103.559 28.0166H91.7389C91.7117 28.9729 91.8243 29.928 92.0732 30.8512C92.3143 31.5923 92.7747 32.241 93.3925 32.7097C94.1012 33.2536 94.9743 33.5335 95.864 33.502C97.7824 33.502 99.0758 32.5611 99.7445 30.6795H99.7474ZM99.5086 25.5014C99.5444 24.3742 99.1453 23.277 98.3953 22.4409C98.0495 22.0726 97.6343 21.7779 97.1739 21.5741C96.7135 21.3703 96.2174 21.2615 95.7147 21.2542C95.2121 21.2469 94.7131 21.3412 94.2471 21.5316C93.7811 21.722 93.3576 22.0045 93.0015 22.3626C92.2911 23.0916 91.8702 24.1378 91.7389 25.5014H99.5086Z" fill="#0092CC"/>
<path id="Vector_5" d="M119.958 36.216H116.078V25.3718C116.078 24.2272 115.817 23.3646 115.296 22.7843C115.062 22.5095 114.771 22.2895 114.445 22.1397C114.118 21.9899 113.762 21.9138 113.403 21.9168C112.393 21.9168 111.507 22.3636 110.747 23.2572C109.987 24.1508 109.604 25.5013 109.598 27.3087V36.231H105.717V18.8503H109.248V22.8747C110.488 19.9528 112.226 18.4908 114.463 18.4888C115.892 18.4558 117.279 18.9727 118.344 19.9347C119.418 20.8946 119.955 22.5845 119.955 25.0043L119.958 36.216Z" fill="#0092CC"/>
<path id="Vector_6" d="M86.3152 33.3762C85.3203 32.4605 83.9432 32.0026 82.1841 32.0026H77.05C76.262 32.0026 75.6769 31.8249 75.2889 31.4664C75.1138 31.3244 74.9712 31.1459 74.8708 30.9432C74.7703 30.7404 74.7144 30.5182 74.7068 30.2916C74.7068 29.5205 75.1048 28.9512 75.9008 28.5837C76.9464 28.8587 78.0203 29.0094 79.1007 29.0325C81.212 29.0325 82.9084 28.5305 84.19 27.5264C84.7923 27.0906 85.282 26.515 85.6176 25.8481C85.9532 25.1812 86.1249 24.4427 86.1182 23.6948C86.1039 22.6198 85.6931 21.5888 84.966 20.803L87.4465 20.5831L86.8913 17.2305L82.202 18.8209H82.1841C81.0875 18.5811 79.9689 18.459 78.8469 18.4565C76.459 18.4565 74.674 18.9685 73.492 19.9927C72.9419 20.4368 72.4979 21.0002 72.1931 21.6411C71.8882 22.282 71.7302 22.9839 71.7309 23.6948C71.7309 25.4118 72.5268 26.7593 74.1188 27.7372C72.2841 28.6349 71.3657 29.8398 71.3637 31.352C71.3637 32.356 71.9 33.317 72.9726 34.2347C71.2951 35.038 70.4563 36.2178 70.4563 37.7741C70.4563 40.9169 73.2422 42.4883 78.8141 42.4883C81.7811 42.4883 84.0198 41.9471 85.5302 40.8647C87.0406 39.7823 87.7968 38.4187 87.7988 36.774C87.8103 36.133 87.6837 35.4971 87.4275 34.9104C87.1713 34.3237 86.7918 33.8002 86.3152 33.3762ZM76.6142 21.7639C77.1774 21.2097 77.9734 20.9325 79.0022 20.9325C80.031 20.9325 80.8031 21.1976 81.3185 21.7278C81.5792 21.982 81.7846 22.2881 81.9218 22.6267C82.059 22.9654 82.125 23.3291 82.1154 23.6948C82.1154 25.703 81.0548 26.7071 78.9335 26.7071C77.9385 26.7071 77.1624 26.442 76.6053 25.9118C76.3278 25.6463 76.1098 25.3241 75.9656 24.9667C75.8215 24.6093 75.7546 24.2249 75.7695 23.8394C75.7584 23.453 75.8278 23.0686 75.9734 22.7111C76.1189 22.3536 76.3372 22.0309 76.6142 21.7639ZM79.6976 39.8074C77.656 39.8074 76.1635 39.5062 75.2203 38.9037C74.277 38.3013 73.8094 37.5984 73.8173 36.7951C73.8173 36.3132 74.0979 35.8101 74.6561 35.289C75.5698 35.5506 76.5125 35.6953 77.4619 35.7197H81.602C82.2264 35.71 82.8429 35.8614 83.393 36.1595C83.6346 36.2775 83.8375 36.4633 83.9772 36.6946C84.117 36.926 84.1877 37.193 84.181 37.4638C84.177 39.0262 82.6826 39.8074 79.6976 39.8074Z" fill="#0092CC"/>
<path id="Vector_7" d="M15.4022 14.9766C15.1038 15.2326 14.8948 15.3832 14.8948 15.3832C11.4203 17.9708 6.97579 19.2239 6.97579 19.2239L6.26836 19.4257C7.38975 20.5482 8.73831 21.4129 10.2217 21.9605C11.705 22.5081 13.2882 22.7257 14.8626 22.5984C16.4371 22.4711 17.9657 22.0019 19.3437 21.2229C20.7218 20.4439 21.9167 19.3736 22.8467 18.0852C20.8557 18.7991 18.0857 17.3412 15.4022 14.9766Z" fill="url(#paint0_linear_2629_27419)"/>
<path id="Vector_8" d="M24.9331 10.8986C24.9331 10.8324 24.9331 10.7661 24.9331 10.6998C24.9212 10.5392 24.9063 10.3795 24.8884 10.2209L24.8615 10.019C24.8376 9.83831 24.8078 9.66059 24.7749 9.47985C24.7749 9.44672 24.7749 9.41057 24.754 9.37442C24.7122 9.16055 24.6615 8.94969 24.6078 8.73883C24.6078 8.69064 24.5809 8.64244 24.566 8.59425C24.5242 8.4346 24.4764 8.27495 24.4227 8.11831C24.4048 8.05505 24.3809 7.99179 24.36 7.92853C24.3093 7.77792 24.2555 7.62731 24.1959 7.48573L24.1332 7.32006C24.0526 7.13028 23.972 6.94051 23.8824 6.75676C23.8556 6.69652 23.8227 6.63929 23.7929 6.57904C23.7332 6.45855 23.6705 6.33806 23.6048 6.22058C23.5869 6.18443 23.566 6.1513 23.5481 6.11816C22.6198 7.97673 20.0199 9.59733 16.8977 10.8022C17.0636 11.49 17.0636 12.208 16.8977 12.8958C16.635 13.7723 15.9007 14.5374 15.4052 14.9772C18.0917 17.3419 20.8587 18.7998 22.8526 18.0859C23.245 17.5499 23.5886 16.9792 23.8794 16.3809C23.9033 16.3328 23.9242 16.2815 23.9481 16.2303L24.0824 15.9291C24.1212 15.8357 24.157 15.7393 24.1959 15.6429C24.2347 15.5466 24.2406 15.5285 24.2645 15.4682C24.3063 15.3568 24.3451 15.2423 24.3839 15.1278C24.3839 15.0857 24.4138 15.0435 24.4257 15.0013C24.4675 14.8748 24.5063 14.7483 24.5421 14.6218C24.5421 14.5917 24.5421 14.5646 24.563 14.5374C24.6945 14.076 24.7943 13.606 24.8615 13.1307C24.8615 13.0976 24.8615 13.0644 24.8615 13.0313C24.8854 12.8355 24.9063 12.6367 24.9212 12.4289C24.9212 12.3746 24.9212 12.3174 24.9212 12.2602C24.9212 12.0282 24.9481 11.7933 24.9481 11.5553C24.9481 11.3173 24.9481 11.1215 24.9331 10.8986Z" fill="url(#paint1_linear_2629_27419)"/>
<path id="Vector_9" d="M23.184 5.53955C23.1153 5.43111 23.0407 5.32267 22.9661 5.21724C22.8437 5.03952 22.7153 4.86481 22.581 4.69612L22.4288 4.50032C22.3243 4.37682 22.2198 4.25332 22.1124 4.13283L22.0885 4.11475C20.7139 2.59287 18.9459 1.48808 16.9833 0.924546C15.0207 0.361015 12.9412 0.36109 10.9786 0.924763C11.5756 1.58746 12.0233 2.10858 12.0233 2.10858C12.0233 2.10858 15.062 5.62088 16.5723 9.69648C16.7112 10.0552 16.82 10.425 16.8977 10.802C20.0199 9.59707 22.6198 7.97647 23.5332 6.11791C23.4237 5.92311 23.3073 5.73033 23.184 5.53955Z" fill="url(#paint2_linear_2629_27419)"/>
<path id="Vector_10" d="M16.8977 10.802C16.82 10.425 16.7112 10.0552 16.5723 9.69652C15.062 5.62092 12.0233 2.10862 12.0233 2.10862C12.0233 2.10862 11.5696 1.5875 10.9786 0.924805C10.8472 0.963964 10.7159 1.00312 10.5875 1.04831L10.5308 1.06638C10.4025 1.10855 10.2771 1.15374 10.1517 1.20193L10.1129 1.21699C9.71689 1.36943 9.33016 1.54545 8.95479 1.74414H8.93688L8.6563 1.9068L8.49809 2.00621L8.25632 2.1508L8.0802 2.26225L7.86827 2.40383L7.6653 2.5454L7.48322 2.67794L7.22054 2.87976L7.1101 2.96712C6.98473 3.06954 6.86235 3.17195 6.74295 3.26835L6.66535 3.33763L6.38476 3.60271L6.34894 3.63584C4.92742 5.02814 3.90661 6.78338 3.39517 8.71471C2.88374 10.646 2.90082 12.6812 3.44461 14.6035C3.44461 14.6035 3.44461 14.6035 3.44461 14.6216C3.64322 15.3189 3.90916 15.9949 4.2386 16.6398L4.27143 16.703C4.32815 16.8145 4.39083 16.926 4.45351 17.0374C4.45351 17.0615 4.48336 17.0886 4.49829 17.1157C4.56097 17.2242 4.62365 17.3326 4.68932 17.441L4.7132 17.4772C4.92066 17.8077 5.14586 18.1264 5.3878 18.4321C5.41765 18.4743 5.4475 18.5134 5.48033 18.5526C5.51316 18.5917 5.6057 18.7062 5.67137 18.7815L5.79673 18.9261L5.9818 19.1339L6.13403 19.2906L6.26537 19.4291L6.96981 19.2273C6.96981 19.2273 11.4203 17.9712 14.8948 15.3837C14.8948 15.3837 15.1097 15.2331 15.4022 14.977C15.9097 14.5372 16.644 13.7721 16.8947 12.8955C17.0616 12.208 17.0626 11.4901 16.8977 10.802Z" fill="url(#paint3_radial_2629_27419)"/>
<path id="Vector_11" d="M6.95786 0.913086C6.95786 0.913086 1.92228 3.21144 0.420858 8.29012C-1.08056 13.3688 1.91332 18.0288 1.91332 18.0288C1.91332 18.0288 6.3549 16.7666 9.82936 14.1881C9.82936 14.1881 11.4293 13.0856 11.8412 11.7C12.2442 10.3113 11.5039 8.507 11.5039 8.507C9.99353 4.41635 6.95786 0.913086 6.95786 0.913086Z" fill="url(#paint4_radial_2629_27419)"/>
<path id="Vector_12" d="M123.042 34.3066C123.232 34.306 123.418 34.3624 123.577 34.4686C123.735 34.5749 123.859 34.7261 123.932 34.9033C124.005 35.0805 124.025 35.2756 123.988 35.464C123.951 35.6523 123.86 35.8254 123.726 35.9614C123.591 36.0973 123.42 36.19 123.233 36.2277C123.047 36.2653 122.853 36.2463 122.678 36.173C122.502 36.0997 122.352 35.9753 122.246 35.8158C122.14 35.6562 122.084 35.4686 122.084 35.2766C122.084 35.0199 122.185 34.7736 122.364 34.5918C122.544 34.41 122.787 34.3074 123.042 34.3066ZM123.042 36.0718C123.199 36.0724 123.352 36.026 123.482 35.9386C123.613 35.8511 123.715 35.7264 123.775 35.5805C123.835 35.4345 123.851 35.2737 123.821 35.1186C123.79 34.9635 123.715 34.821 123.604 34.7091C123.493 34.5973 123.352 34.5212 123.198 34.4905C123.045 34.4598 122.885 34.4759 122.741 34.5367C122.596 34.5975 122.473 34.7002 122.386 34.832C122.299 34.9637 122.253 35.1185 122.254 35.2766C122.255 35.4873 122.338 35.6891 122.485 35.838C122.633 35.987 122.833 36.071 123.042 36.0718ZM122.854 35.7917H122.636V34.7555H123.113C123.173 34.7555 123.505 34.7555 123.505 35.0567C123.507 35.1176 123.489 35.1776 123.455 35.2276C123.421 35.2776 123.371 35.3149 123.313 35.3338L123.505 35.7827H123.278L123.108 35.37H122.857L122.854 35.7917ZM122.854 35.2073H123.081C123.155 35.2073 123.278 35.1862 123.278 35.0627C123.278 34.9995 123.236 34.9242 123.102 34.9242H122.854V35.2073Z" fill="#0092CC"/>
</g>
<defs>
<linearGradient id="paint0_linear_2629_27419" x1="10.7487" y1="14.9073" x2="18.5381" y2="22.626" gradientUnits="userSpaceOnUse">
<stop offset="0.17" stop-color="#ECF1C5"/>
<stop offset="0.74" stop-color="#DBE2A1"/>
</linearGradient>
<linearGradient id="paint1_linear_2629_27419" x1="25.0585" y1="13.2331" x2="17.0599" y2="10.3491" gradientUnits="userSpaceOnUse">
<stop stop-color="#DBE2A1"/>
<stop offset="0.27" stop-color="#C9D788"/>
<stop offset="0.55" stop-color="#BBCE75"/>
<stop offset="0.74" stop-color="#B6CB6E"/>
</linearGradient>
<linearGradient id="paint2_linear_2629_27419" x1="21.3393" y1="8.95245" x2="11.2676" y2="0.5784" gradientUnits="userSpaceOnUse">
<stop stop-color="#B5CA6D"/>
<stop offset="0.09" stop-color="#A3C067"/>
<stop offset="0.29" stop-color="#84AE5D"/>
<stop offset="0.46" stop-color="#71A356"/>
<stop offset="0.58" stop-color="#6A9F54"/>
</linearGradient>
<radialGradient id="paint3_radial_2629_27419" cx="0" cy="0" r="1" gradientUnits="userSpaceOnUse" gradientTransform="translate(10.0264 10.1755) scale(8.15782 8.23252)">
<stop offset="0.17" stop-color="#3A5C7B"/>
<stop offset="1" stop-color="#5B89B4"/>
</radialGradient>
<radialGradient id="paint4_radial_2629_27419" cx="0" cy="0" r="1" gradientUnits="userSpaceOnUse" gradientTransform="translate(3.55241 6.17072) rotate(-83.5882) scale(12.5958 7.39159)">
<stop stop-color="#E6F1F7"/>
<stop offset="0.09" stop-color="#D1E3F0"/>
<stop offset="0.28" stop-color="#ABC8E3"/>
<stop offset="0.47" stop-color="#8DB4D8"/>
<stop offset="0.65" stop-color="#78A5D1"/>
<stop offset="0.83" stop-color="#6B9CCC"/>
<stop offset="1" stop-color="#6799CB"/>
</radialGradient>
<clipPath id="clip0_2629_27419">
<rect width="124" height="42" fill="white" transform="translate(0 0.5)"/>
</clipPath>
</defs>
</svg>