<?xml version="1.0" encoding="utf-8"?>
<!-- Generator: Adobe Illustrator 12.0.0, SVG Export Plug-In  -->
<!DOCTYPE svg PUBLIC "-//W3C//DTD SVG 1.1//EN" "http://www.w3.org/Graphics/SVG/1.1/DTD/svg11.dtd" [
	<!ENTITY ns_flows "http://ns.adobe.com/Flows/1.0/">
	<!ENTITY ns_svg "http://www.w3.org/2000/svg">
	<!ENTITY ns_xlink "http://www.w3.org/1999/xlink">
]>
<svg  version="1.1" xmlns="&ns_svg;" xmlns:xlink="&ns_xlink;" xmlns:a="http://ns.adobe.com/AdobeSVGViewerExtensions/3.0/"
	 width="79" height="23" viewBox="-0.214 0 79 23" enable-background="new -0.214 0 79 23" xml:space="preserve">
<defs>
</defs>
<polygon fill="#231E1F" points="40.879,17.223 38.241,17.223 38.241,9.501 34.87,17.223 31.321,9.492 31.321,17.223 28.861,17.223 
	28.861,5.741 32.378,5.741 34.912,11.683 37.322,5.741 40.879,5.741 "/>
<polygon fill="#231E1F" points="44.125,5.741 44.758,5.741 48.816,5.741 48.816,7.756 44.758,7.757 44.758,10.389 48.646,10.389 
	48.646,12.354 44.758,12.354 44.758,15.274 48.816,15.274 48.816,17.223 44.758,17.223 44.125,17.223 42.19,17.223 42.19,5.741 "/>
<g>
	<path fill="#231E1F" d="M67.854,6.316c-3.395-2.013-9.16,0.203-9.16,5.167c0,4.273,4.461,7.695,9.16,5.406v-2.46
		c-3.616,2.532-6.763-0.006-6.711-2.85c0.034-1.888,1.302-3.685,3.759-3.825c1.208-0.068,2.025,0.232,2.952,1.119V6.316z"/>
	<rect x="68.937" y="5.852" fill="#231E1F" width="2.441" height="11.371"/>
	<polygon fill="#231E1F" points="75.869,17.223 71.626,11.056 75.282,5.876 78.133,5.876 74.443,11.064 78.671,17.223 	"/>
	<path fill-rule="evenodd" clip-rule="evenodd" fill="#231E1F" d="M49.955,5.741h2.578h1.944c2.662,0,3.761,2.14,3.761,3.449
		c0,1.309-0.508,2.619-2.072,3.211l3.373,4.822h-2.747l-4.259-6.17v6.17h-2.578V5.741z M52.533,11V7.65h1.124
		c1.901,0,2.002,1.244,2.002,1.709c0,0.887-0.751,1.641-1.724,1.641H52.533z"/>
	<path fill="#149E96" d="M5.741,5.741C5.741,2.571,8.31,0,11.482,0c3.171,0,5.741,2.571,5.741,5.741H5.741z"/>
	<path fill="#149E96" d="M0,11.481c0-3.17,2.569-5.74,5.741-5.74c0,3.171,2.569,5.74,5.741,5.74c-3.172,0-5.741,2.57-5.741,5.742
		C2.569,17.224,0,14.653,0,11.481"/>
	<path fill="#149E96" d="M17.223,17.224c0,3.17-2.57,5.74-5.741,5.74c-3.171,0-5.741-2.57-5.741-5.74H17.223z"/>
	<path fill="#149E96" d="M17.223,5.741c3.171,0,5.74,2.57,5.74,5.741s-2.569,5.741-5.74,5.741c0-3.172-2.57-5.741-5.741-5.741
		C14.653,11.482,17.223,8.912,17.223,5.741"/>
</g>
</svg>
