<?xml version="1.0" encoding="utf-8"?>
<!-- Generator: Adobe Illustrator 25.4.1, SVG Export Plug-In . SVG Version: 6.00 Build 0)  -->
<svg version="1.1" id="Layer_1" xmlns="http://www.w3.org/2000/svg" xmlns:xlink="http://www.w3.org/1999/xlink" x="0px" y="0px"
	 viewBox="0 0 207.9 74.1" style="enable-background:new 0 0 207.9 74.1;" xml:space="preserve">
<style type="text/css">
	.st0{fill:#FFFFFF;}
	.st1{fill:#ED1C24;}
</style>
<g>
	<g>
		<path class="st0" d="M28.6,23.4C11.8,34.9,0,50.6,0,50.6l22,14.9c0,0,1.9-4.8,2-4.9c5.2,10.8,16.5,13.7,22.8,13.5h-0.1h114.4H161
			c6.4,0.2,17.7-2.7,23-13.5c0.2,0.5,1.9,4.6,1.9,4.6l22-14.7c0,0-12-15.6-28.9-27.2C163.4,12.7,137.7,0,103.7,0
			C69.6,0,44.1,12.7,28.6,23.4z"/>
		<polygon class="st1" points="70.3,35.2 72.2,31.1 47.8,31.1 45.9,35.2 55.3,35.2 45.5,55.1 51.9,55.1 61.7,35.2 		"/>
		<path class="st1" d="M158.5,48.5c-1.8,2.5-4.4,3.9-5.8,2.9c-1.4-1-1-3.8,0.8-6.4c1.8-2.6,4.4-3.9,5.8-2.9
			C160.7,43.1,160.4,45.9,158.5,48.5z M137.2,48.4c-1.8,2.6-4.4,3.9-5.8,2.9c-1.4-1-1-3.8,0.8-6.4c1.8-2.5,4.4-3.9,5.8-2.9
			C139.3,43,139,45.8,137.2,48.4 M110.6,46.5c0,0,1.2-4,5-5.6c0,0,1.1-0.4,1.7,0.1c0,0,0.8,0.8-0.2,2.3c-0.9,1.3-3,3.7-5.2,4.5
			C111.9,47.8,109.8,48.7,110.6,46.5 M73.3,48.4c-1.8,2.6-4.4,3.9-5.8,2.9c-1.4-1-1-3.8,0.8-6.4c1.8-2.5,4.4-3.9,5.8-2.9
			C75.5,43,75.1,45.8,73.3,48.4 M164.6,51.5c0,0-1.2,0.6-1.8,0c-0.5-0.5-0.1-1.6-0.1-1.6l5.2-10.9h-5.3l-0.8,1.5
			c-3.1-2.7-8.9-1.3-12.4,2.4c-2.1,2.2-3.2,4.7-3.4,6.9c-0.6,0.4-1.6,1-2.8,1.5c0,0-1.2,0.6-1.8,0s-0.1-1.6-0.1-1.6l9.2-18.9h-5.3
			l-4.8,9.5c-3.1-2.7-8.9-1.3-12.4,2.4c-0.7,0.8-1.3,1.6-1.8,2.4v0c0,0.1-0.1,0.1-0.1,0.2c-0.1,0.2-0.2,0.4-0.3,0.6
			c-2.9,5-6.4,5.8-6.4,5.8c-7.5,2.2-8.4-1.4-8.4-1.4c8.4-3.1,11.6-6.8,11.3-9.6c-0.3-2.8-4.2-3-4.2-3c-6.4-0.4-11.9,4.1-13.2,8.4
			c-0.4,1.3-0.5,2.7-0.3,3.9c-2.5,1.4-4,1.6-4,1.6c-2.1,0.7-2.4-0.3-2.6-1c-0.3-0.6-1.2-6-1.2-6l8.9-5.9h-5.5l-6.7,4.2
			c-1.5,0.6-0.9-1-0.9-1L98.1,31h-5.3l-8.9,18c-1,0.6-3.1,1.8-4.6,2.4c0,0-1.2,0.6-1.8,0c-0.5-0.5-0.1-1.6-0.1-1.6L82.7,39h-5.3
			l-0.8,1.5c-3.1-2.7-8.9-1.3-12.4,2.4c-3.6,3.7-4.5,8.7-2,11c2,1.9,5.5,1.5,8.6-0.6c0,0,0.8-0.7,1.2,0.1c0.5,0.8,2.3,2.7,6.4,1.1
			c1.3-0.5,2.5-1.1,3.6-1.7L81,55.1h5.3l2.6-5.3l2.3-1.5c0,0,0.7-0.5,1,0.6c0,0,1.1,4.5,1.6,5.1c0.4,0.6,1.3,1.9,5,0.8
			c2.8-0.8,5.5-1.8,6.9-2.4c1.2,1.7,3.6,2.9,7.5,2.9c5.8,0,9.9-2.8,11.6-4.2c0.1,1.1,0.6,2.1,1.3,2.9c2,1.9,5.5,1.5,8.6-0.6
			c0,0,0.8-0.7,1.2,0.1c0.5,0.8,2.3,2.7,6.4,1.1c1.9-0.8,3.2-1.5,4-2c0.2,0.6,0.6,1.1,1,1.5c2,1.9,5.5,1.5,8.6-0.6
			c0,0,0.8-0.7,1.2,0.1c0.5,0.8,2.3,2.7,6.4,1.1c4.2-1.6,5.4-3.1,5.4-3.1l-1.1-1.9C167.9,49.7,166.6,50.7,164.6,51.5"/>
		<path class="st1" d="M179.4,51c0,0-2.5,14.5-18.5,14.5c-15.9,0-98.3,0-114.2,0c-16.1,0-18.3-14.7-18.3-14.7
			c-0.6-3.9,0.1-6.5,1.3-8.4c11.6-15.2,34.4-35.6,74-35.6c39.9,0,63,20.7,74.5,36C179.5,44.5,180,47.3,179.4,51z M103.7,4.3
			C40,4.3,6.2,49.5,6.2,49.5L20,58.9c0,0,1.7-4.2,5.5-10.2c0,1.5,0.2,2.6,0.2,2.6c2.5,19,20.9,18.5,20.9,18.5h114.4
			c0,0,18.7,0.5,21.1-18.5c0,0,0.2-1,0.2-2.5c3.8,5.9,5.4,9.9,5.4,9.9l13.8-9.3C201.7,49.5,167.4,4.3,103.7,4.3"/>
	</g>
</g>
</svg>
